<?xml version="1.0" encoding="UTF-8"?>
<svg xmlns="http://www.w3.org/2000/svg" xmlns:xlink="http://www.w3.org/1999/xlink" width="2400" height="2400" viewBox="0 0 2400 2400">

<path fill-rule="evenodd" fill="rgb(87.889099%, 99.609375%, 100%)" fill-opacity="1" d="M 1542.378906 1401.632812 C 1439.679688 1504.179688 1446.800781 1575.367188 1502.339844 1613.507812 C 1573.261719 1662.210938 1715.980469 1645.371094 1822 1601.222656 C 2178.21875 1452.898438 1772.339844 1172.039062 1542.378906 1401.632812 "/>
<path fill-rule="evenodd" fill="rgb(87.889099%, 99.609375%, 100%)" fill-opacity="1" d="M 575.695312 1734.886719 C 733.757812 1790.835938 938.523438 1758.425781 1117.769531 1677.953125 C 1243.800781 1621.375 1314.359375 1578.324219 1377.410156 1516.339844 C 1518.421875 1377.691406 1473.449219 1356.511719 1544.460938 1320.691406 C 1658.050781 1263.390625 1855.351562 1182.5 1886.910156 1030.480469 C 1923.828125 852.609375 1787.71875 784.449219 1633.019531 769.960938 C 1520.480469 759.421875 1376.28125 807.378906 1253.378906 852.109375 C 1025.890625 934.910156 909.265625 860.78125 808.078125 849.480469 C 337.175781 796.910156 261.011719 1623.5 575.695312 1734.886719 "/>
<path fill-rule="evenodd" fill="rgb(87.889099%, 99.609375%, 100%)" fill-opacity="1" d="M 1110.800781 700.910156 C 1022.988281 730.53125 1005.5 756.289062 1024.800781 773.53125 C 1049.441406 795.539062 1133.628906 799.019531 1205.691406 790.371094 C 1447.808594 761.308594 1307.410156 634.589844 1110.800781 700.910156 "/>
<path fill-rule="evenodd" fill="rgb(24.705505%, 10.984802%, 18.821716%)" fill-opacity="1" d="M 879.980469 1308.800781 C 876.207031 1296.328125 933.902344 1216.160156 921.976562 1161.269531 C 913.03125 1120.121094 907.414062 1071.96875 902.960938 1060.238281 C 891.628906 1030.390625 874.128906 1006.980469 841.925781 1011.269531 C 834.714844 1012.230469 826.910156 1014.558594 818.449219 1018.488281 C 805.023438 1024.738281 796.054688 1035.308594 790.09375 1048.289062 C 784.84375 1059.730469 778.210938 1091.761719 771.742188 1130.328125 C 769.414062 1144.179688 767.109375 1158.878906 764.898438 1173.769531 C 756.941406 1220.261719 710.425781 1246.300781 675.5625 1271.75 C 671.09375 1275.011719 667.679688 1278.25 668.191406 1284.179688 C 680.996094 1288.691406 674.097656 1294.378906 694.523438 1290.371094 C 711.070312 1287.128906 720.867188 1283.03125 736.425781 1292.601562 L 738.699219 1294 C 755.808594 1305.070312 769.871094 1293.53125 791.027344 1304.648438 C 804.703125 1311.839844 809.066406 1312.480469 824.804688 1313.070312 C 850.261719 1314.03125 854.546875 1310.441406 879.980469 1308.800781 "/>
<path fill-rule="evenodd" fill="rgb(100%, 36.863708%, 38.818359%)" fill-opacity="1" d="M 966.558594 1171.140625 L 1068.421875 1171.78125 L 1097.898438 1185.75 C 1130.390625 1223.320312 1093.730469 1224.621094 1049.628906 1229.699219 C 1012.550781 1233.980469 965.023438 1233.679688 928.792969 1236.761719 C 755.949219 1251.449219 864.277344 1120.351562 918.710938 1163.25 C 926.425781 1169.328125 947.277344 1174.738281 966.558594 1171.140625 "/>
<path fill-rule="evenodd" fill="rgb(23.925781%, 2.348328%, 10.205078%)" fill-opacity="1" d="M 1009.671875 1841.683594 C 1014.378906 1844.304688 1034.628906 1861.429688 1034.628906 1861.429688 C 1052.339844 1872.628906 1069.03125 1883.878906 1089.789062 1888.128906 C 1094.238281 1889.039062 1098.640625 1889.960938 1102.390625 1891.011719 C 1108.828125 1892.816406 1116.191406 1901.152344 1108.628906 1907.773438 C 1092.859375 1921.582031 1048.929688 1911.488281 1028.871094 1910.011719 C 1022.679688 1909.554688 1016.46875 1909.65625 1010.28125 1909.480469 C 1000.75 1909.210938 988.125 1909.75 979.210938 1906.671875 C 965.652344 1901.988281 969.324219 1893.820312 976.171875 1869.132812 C 977.21875 1865.363281 992.414062 1832.128906 990.769531 1827.679688 L 993.261719 1840.785156 L 993.21875 1846.699219 L 1009.671875 1841.683594 "/>
<path fill-rule="evenodd" fill="rgb(23.925781%, 2.348328%, 10.205078%)" fill-opacity="1" d="M 851.503906 1793.007812 C 854.878906 1797.203125 867.203125 1820.691406 867.203125 1820.691406 C 879.402344 1837.726562 890.640625 1854.425781 908.277344 1866.171875 C 912.058594 1868.6875 915.789062 1871.195312 918.867188 1873.582031 C 924.152344 1877.675781 927.84375 1888.167969 918.34375 1891.460938 C 898.542969 1898.324219 861.636719 1872.453125 843.597656 1863.539062 C 838.03125 1860.789062 832.242188 1858.546875 826.570312 1856.054688 C 817.84375 1852.222656 805.941406 1847.976562 798.839844 1841.769531 C 788.039062 1832.332031 794.515625 1826.148438 810.140625 1805.84375 C 812.527344 1802.746094 839.105469 1777.664062 839.257812 1772.925781 L 836.636719 1786.003906 L 834.375 1791.46875 L 851.503906 1793.007812 "/>
<path fill-rule="evenodd" fill="rgb(38.035583%, 5.488586%, 17.259216%)" fill-opacity="1" d="M 921.59375 1362.269531 C 899.132812 1378.949219 871.046875 1431.652344 885.421875 1476.726562 C 896.019531 1509.960938 926.410156 1554.136719 941.539062 1577.660156 C 952.113281 1598.039062 985.59375 1674.882812 1019.238281 1671.65625 C 1075.761719 1666.230469 1023.058594 1562.824219 1008.308594 1516.761719 L 1002.46875 1488.332031 C 997.96875 1466.949219 977.253906 1320.929688 921.59375 1362.269531 "/>
<path fill-rule="evenodd" fill="rgb(38.035583%, 5.488586%, 17.259216%)" fill-opacity="1" d="M 1034.859375 1665.945312 C 1000.320312 1694.53125 962.601562 1726.171875 928.078125 1752.910156 C 915.695312 1762.503906 903.40625 1772.320312 891.285156 1782.605469 L 866.011719 1803.503906 C 838.464844 1801.476562 825.976562 1792.128906 830.957031 1775.105469 C 893.117188 1709.425781 911.273438 1655.664062 974.519531 1637.972656 L 987.53125 1627.996094 C 987.53125 1627.996094 1005.171875 1655.308594 1011.941406 1658.382812 C 1018.710938 1661.457031 1022.429688 1660.902344 1024.511719 1661.101562 C 1026.601562 1661.300781 1034.859375 1665.945312 1034.859375 1665.945312 "/>
<path fill-rule="evenodd" fill="rgb(94.921875%, 74.414062%, 59.959412%)" fill-opacity="1" d="M 875.933594 1133.109375 L 881.808594 1167.949219 C 881.808594 1167.949219 855.105469 1173.460938 853.03125 1173.660156 C 850.957031 1173.859375 817.636719 1174.980469 817.636719 1174.980469 C 825.03125 1157.398438 825.277344 1135.171875 822.023438 1110.660156 L 852.523438 1116.308594 L 875.933594 1133.109375 "/>
<path fill-rule="evenodd" fill="rgb(98.826599%, 89.0625%, 76.951599%)" fill-opacity="1" d="M 892.265625 1094.351562 C 893.273438 1114.238281 896.609375 1133.261719 878.898438 1146.820312 C 854.566406 1165.449219 821.597656 1133.460938 817.761719 1109.660156 C 815.992188 1098.691406 812.621094 1089.730469 814.292969 1080.519531 C 815.59375 1073.351562 819.253906 1066.179688 826.757812 1058.308594 C 834.152344 1050.558594 843.292969 1045.921875 854.542969 1046.808594 C 884.523438 1049.191406 885.863281 1071.128906 892.265625 1094.351562 "/>
<path fill-rule="evenodd" fill="rgb(98.826599%, 89.0625%, 76.951599%)" fill-opacity="1" d="M 887.863281 1092.191406 C 888.992188 1090.699219 889.917969 1089.390625 890.703125 1088.300781 C 897.789062 1078.441406 899.097656 1089.410156 898.847656 1098.171875 C 898.609375 1106.621094 897.332031 1111.601562 889.457031 1115.300781 L 887.84375 1110.890625 C 887.84375 1110.890625 888.917969 1104.039062 888.796875 1102.769531 C 888.671875 1101.511719 887.863281 1092.191406 887.863281 1092.191406 "/>
<path fill-rule="evenodd" fill="rgb(98.826599%, 89.0625%, 76.951599%)" fill-opacity="1" d="M 808.308594 1094.089844 C 806.589844 1095.421875 805.382812 1098.28125 805.050781 1102.839844 C 804.371094 1112.179688 809.886719 1115.449219 816.894531 1118.308594 C 818.972656 1119.160156 821.175781 1119.96875 823.390625 1120.898438 L 828.164062 1120.441406 C 826.28125 1114.421875 817.976562 1086.589844 808.308594 1094.089844 "/>
<path fill-rule="evenodd" fill="rgb(24.705505%, 10.984802%, 18.821716%)" fill-opacity="1" d="M 844.703125 1045.648438 C 834.152344 1065.039062 817.539062 1090.808594 791.316406 1087.53125 L 789.8125 1068.929688 C 789.8125 1068.929688 803.972656 1047.488281 805.71875 1046.96875 C 807.464844 1046.441406 822.585938 1038.691406 824.214844 1038.828125 C 825.847656 1038.96875 844.703125 1045.648438 844.703125 1045.648438 "/>
<path fill-rule="evenodd" fill="rgb(24.705505%, 10.984802%, 18.821716%)" fill-opacity="1" d="M 825.363281 1047.160156 C 836.121094 1062.660156 871.425781 1068.921875 892.257812 1068.570312 L 890.261719 1057.261719 L 877.371094 1041.949219 C 877.371094 1041.949219 870.605469 1037.960938 869.835938 1038.03125 C 869.0625 1038.109375 856.789062 1038.488281 856.789062 1038.488281 L 825.363281 1047.160156 "/>
<path fill-rule="evenodd" fill="rgb(98.826599%, 89.0625%, 76.951599%)" fill-opacity="1" d="M 1084.980469 1026.21875 L 1083.5 1005.570312 L 1079.121094 992.308594 L 1073.351562 978.5 L 1072.121094 971.441406 L 1072.148438 962.609375 L 1077.261719 959.121094 L 1081.199219 957.921875 L 1080.191406 950.570312 L 1084.769531 944.058594 L 1095.328125 943.519531 L 1103.988281 942.539062 L 1109.660156 944.539062 C 1109.660156 944.539062 1117.359375 951.519531 1118.738281 952.710938 C 1120.109375 953.898438 1130.578125 962.601562 1130.578125 962.601562 L 1132.75 966.121094 L 1131.28125 982.339844 L 1121.660156 1028.640625 L 1124.050781 1032.691406 C 1109.300781 1041.238281 1098.269531 1036.960938 1084.980469 1026.21875 "/>
<path fill-rule="evenodd" fill="rgb(100%, 36.863708%, 38.818359%)" fill-opacity="1" d="M 1067.75 1196.960938 C 1146.941406 1284.621094 1128.558594 1072.160156 1126.601562 1021.128906 L 1082.511719 1016.269531 L 1067.660156 1131.480469 L 1058.191406 1184.519531 L 1067.75 1196.960938 "/>
<path fill-rule="evenodd" fill="rgb(98.826599%, 89.0625%, 76.951599%)" fill-opacity="1" d="M 708.371094 958.46875 L 715.773438 939.140625 L 723.816406 927.71875 L 733.34375 916.179688 L 736.5625 909.78125 L 739.101562 901.320312 L 735.222656 896.5 L 731.796875 894.210938 L 734.902344 887.460938 L 732.402344 879.898438 L 722.457031 876.328125 L 714.453125 872.878906 L 708.445312 873.148438 C 708.445312 873.148438 699.050781 877.589844 697.386719 878.328125 C 695.726562 879.070312 683.183594 884.359375 683.183594 884.359375 L 680.085938 887.101562 L 676.785156 903.050781 L 672.566406 950.148438 L 669.105469 953.328125 C 680.734375 965.789062 692.535156 964.890625 708.371094 958.46875 "/>
<path fill-rule="evenodd" fill="rgb(100%, 36.863708%, 38.818359%)" fill-opacity="1" d="M 665.050781 1105.96875 C 578.246094 1164.25 653.984375 981.089844 671.21875 938.96875 L 713.050781 951.910156 C 700.023438 1025.960938 690.710938 1055 684.074219 1109.441406 L 665.050781 1105.96875 "/>
<path fill-rule="evenodd" fill="rgb(100%, 36.863708%, 38.818359%)" fill-opacity="1" d="M 680.339844 1090.789062 L 649.515625 1083.371094 C 603.273438 1093.449219 630.828125 1118.488281 663.023438 1150.511719 C 689.933594 1177.289062 720.890625 1206.890625 747.8125 1234.761719 C 790.414062 1278.890625 831.386719 1238.308594 813.921875 1189.671875 C 802.222656 1157.078125 722.542969 1124.910156 680.339844 1090.789062 "/>
<path fill-rule="evenodd" fill="rgb(43.530273%, 7.835388%, 20.776367%)" fill-opacity="1" d="M 809.828125 1388.601562 C 796.222656 1416.777344 795.726562 1483.570312 833.351562 1520.777344 C 861.09375 1548.214844 914.125 1576.226562 941.320312 1591.691406 C 962.367188 1606.402344 1035.410156 1665.183594 1067.070312 1644.535156 C 1120.269531 1609.839844 1014.410156 1534.703125 975.898438 1496.707031 L 955.359375 1471.566406 C 939.8125 1452.710938 843.542969 1318.761719 809.828125 1388.601562 "/>
<path fill-rule="evenodd" fill="rgb(43.530273%, 7.835388%, 20.776367%)" fill-opacity="1" d="M 1081.589844 1623.109375 C 1072.070312 1672.347656 1061.980469 1726.480469 1051.160156 1774.109375 C 1047.28125 1791.195312 1043.648438 1808.40625 1040.488281 1825.90625 L 1034.109375 1858.949219 C 1008.871094 1876.773438 990.570312 1870.753906 982.773438 1852.511719 C 989.785156 1751.609375 967.539062 1702.0625 1009.589844 1641.835938 L 1013.738281 1623.972656 C 1013.738281 1623.972656 1048.390625 1635.019531 1056.421875 1632.867188 C 1064.441406 1630.714844 1067.269531 1627.589844 1069.210938 1626.28125 C 1071.148438 1624.972656 1081.589844 1623.109375 1081.589844 1623.109375 "/>
<path fill-rule="evenodd" fill="rgb(100%, 36.863708%, 38.818359%)" fill-opacity="1" d="M 920.242188 1167.238281 C 920.433594 1168.03125 991.183594 1242.179688 966.800781 1270.550781 C 945.140625 1296.640625 978.304688 1402.859375 1008.839844 1426.222656 C 964.371094 1454.199219 875.09375 1458.292969 789.199219 1417.542969 C 796.195312 1354.039062 813.8125 1370.191406 778.734375 1283.039062 C 732.832031 1168.980469 734.4375 1172.359375 831.050781 1165.539062 L 892.863281 1162.648438 L 909.433594 1157.761719 L 920.242188 1167.238281 "/>
<path fill-rule="evenodd" fill="rgb(94.921875%, 74.414062%, 59.959412%)" fill-opacity="1" d="M 881.007812 1163.199219 C 881.398438 1166.03125 863.597656 1200.851562 820.589844 1166.429688 C 831.152344 1159.101562 844.039062 1151.609375 855.929688 1153.738281 C 863.054688 1154.011719 874.199219 1162.53125 881.007812 1163.199219 "/>
<path fill-rule="evenodd" fill="rgb(100%, 59.959412%, 0%)" fill-opacity="1" d="M 789.921875 1040.351562 L 780.503906 1052 C 834.351562 1048.761719 850.101562 1050.871094 897.675781 1026.261719 L 880 1018 L 817.140625 1028.378906 L 789.921875 1040.351562 "/>
<path fill-rule="evenodd" fill="rgb(100%, 74.804688%, 0%)" fill-opacity="1" d="M 792.867188 1023.308594 C 791.921875 1028.878906 790.9375 1034.550781 789.921875 1040.351562 C 812.480469 1038.421875 827.117188 1036.621094 842.476562 1032.289062 C 853.535156 1029.171875 864.96875 1024.738281 880 1018 C 877.246094 1013.679688 874.457031 1009.441406 871.644531 1005.269531 C 841.007812 1019.679688 823.671875 1021.609375 792.867188 1023.308594 "/>
<path fill-rule="evenodd" fill="rgb(100%, 59.959412%, 0%)" fill-opacity="1" d="M 792.867188 1023.308594 C 823.671875 1021.609375 841.007812 1019.679688 871.644531 1005.269531 C 868.863281 1001.140625 866.054688 997.078125 863.234375 993.070312 C 837.59375 1003.261719 821.035156 1004.980469 795.757812 1005.550781 C 794.855469 1011.378906 793.886719 1017.289062 792.867188 1023.308594 "/>
<path fill-rule="evenodd" fill="rgb(100%, 74.804688%, 0%)" fill-opacity="1" d="M 795.757812 1005.550781 C 821.035156 1004.980469 837.59375 1003.261719 863.234375 993.070312 C 858.53125 986.390625 853.78125 979.839844 849.023438 973.339844 C 831.4375 982.871094 817.265625 986.890625 797.902344 990.78125 C 797.246094 995.671875 796.527344 1000.578125 795.757812 1005.550781 "/>
<path fill-rule="evenodd" fill="rgb(100%, 59.959412%, 0%)" fill-opacity="1" d="M 797.902344 990.78125 C 817.265625 986.890625 831.4375 982.871094 849.023438 973.339844 C 846.535156 969.949219 844.046875 966.558594 841.558594 963.179688 C 826.898438 966.871094 814.722656 967.890625 800.511719 967.78125 C 799.824219 975.449219 798.941406 983.078125 797.902344 990.78125 "/>
<path fill-rule="evenodd" fill="rgb(100%, 74.804688%, 0%)" fill-opacity="1" d="M 800.511719 967.78125 C 814.722656 967.890625 826.898438 966.871094 841.558594 963.179688 C 835.621094 955.121094 829.699219 947.070312 823.859375 938.871094 C 816.425781 942.929688 809.335938 946 801.785156 948.660156 C 801.714844 950.320312 801.632812 951.980469 801.542969 953.640625 C 801.277344 958.378906 800.933594 963.089844 800.511719 967.78125 "/>
<path fill-rule="evenodd" fill="rgb(100%, 59.959412%, 0%)" fill-opacity="1" d="M 801.785156 948.660156 C 809.335938 946 816.425781 942.929688 823.859375 938.871094 C 816.066406 927.921875 808.425781 916.710938 801.09375 904.851562 C 802.234375 920.289062 802.382812 934.691406 801.785156 948.660156 "/>
<path fill-rule="evenodd" fill="rgb(93.75%, 29.417419%, 29.026794%)" fill-opacity="1" d="M 801.09375 920.238281 C 809.589844 920.238281 816.476562 913.351562 816.476562 904.851562 C 816.476562 896.359375 809.589844 889.46875 801.09375 889.46875 C 792.59375 889.46875 785.707031 896.359375 785.707031 904.851562 C 785.707031 913.351562 792.59375 920.238281 801.09375 920.238281 "/>
<path fill-rule="evenodd" fill="rgb(98.826599%, 89.0625%, 76.951599%)" fill-opacity="1" d="M 1698.011719 1005.121094 L 1698.359375 984.429688 L 1695.179688 970.820312 L 1690.648438 956.570312 L 1690.058594 949.421875 L 1690.871094 940.628906 L 1696.261719 937.609375 L 1700.300781 936.761719 L 1699.941406 929.339844 L 1705.078125 923.269531 L 1715.648438 923.671875 L 1724.359375 923.460938 L 1729.828125 925.960938 C 1729.828125 925.960938 1736.890625 933.589844 1738.148438 934.890625 C 1739.410156 936.199219 1749.070312 945.789062 1749.070312 945.789062 L 1750.921875 949.488281 L 1748.019531 965.53125 L 1734.328125 1010.789062 L 1736.351562 1015.03125 C 1720.910156 1022.238281 1710.289062 1017 1698.011719 1005.121094 "/>
<path fill-rule="evenodd" fill="rgb(98.826599%, 89.0625%, 76.951599%)" fill-opacity="1" d="M 1298.921875 810.570312 L 1296.96875 789.960938 L 1299.109375 776.148438 L 1302.53125 761.589844 L 1302.570312 754.421875 L 1301.089844 745.710938 L 1295.480469 743.121094 L 1291.390625 742.578125 L 1291.179688 735.160156 L 1285.578125 729.488281 L 1275.078125 730.710938 L 1266.378906 731.160156 L 1261.109375 734.070312 C 1261.109375 734.070312 1254.671875 742.21875 1253.511719 743.621094 C 1252.339844 745.019531 1243.449219 755.328125 1243.449219 755.328125 L 1241.890625 759.160156 L 1246.019531 774.921875 L 1263.140625 819 L 1261.449219 823.390625 C 1277.398438 829.390625 1287.578125 823.351562 1298.921875 810.570312 "/>
<path fill-rule="evenodd" fill="rgb(76.5625%, 83.201599%, 32.151794%)" fill-opacity="1" d="M 1478.730469 1345.089844 C 1595.859375 1499.195312 1413.25 1503.152344 1259.710938 1516.621094 C 1236.429688 1519.972656 1177.269531 1540.402344 1170.480469 1509.097656 C 1161.25 1466.578125 1242 1447.496094 1285.75 1428.640625 L 1314.378906 1416.570312 L 1478.730469 1345.089844 "/>
<path fill-rule="evenodd" fill="rgb(76.5625%, 83.201599%, 32.151794%)" fill-opacity="1" d="M 1422.261719 1358.5 C 1616.910156 1338.578125 1524.171875 1498.230469 1454.949219 1637.804688 C 1445.578125 1659.65625 1438.441406 1696.71875 1407.851562 1686.097656 C 1366.300781 1671.671875 1385.96875 1616.6875 1392.738281 1569.011719 L 1397.398438 1537.953125 L 1422.261719 1358.5 "/>
<path fill-rule="evenodd" fill="rgb(9.397888%, 20.776367%, 36.863708%)" fill-opacity="1" d="M 1233.53125 1711.445312 C 1229.390625 1714.007812 1211.871094 1730.308594 1211.871094 1730.308594 C 1196.378906 1741.15625 1181.808594 1752.003906 1163.28125 1756.71875 C 1159.300781 1757.730469 1155.378906 1758.746094 1152.039062 1759.855469 C 1146.308594 1761.753906 1140.03125 1769.582031 1147.128906 1775.230469 C 1161.929688 1787.007812 1201.101562 1776.039062 1219.121094 1773.855469 C 1224.679688 1773.179688 1230.28125 1773.007812 1235.859375 1772.585938 C 1244.441406 1771.9375 1255.839844 1771.890625 1263.738281 1768.734375 C 1275.769531 1763.9375 1272.109375 1756.730469 1264.890625 1734.765625 C 1263.789062 1731.410156 1263.28125 1728.097656 1264.570312 1724.015625 L 1255.449219 1719.996094 L 1248.570312 1715.269531 L 1233.53125 1711.445312 "/>
<path fill-rule="evenodd" fill="rgb(76.5625%, 83.201599%, 32.151794%)" fill-opacity="1" d="M 1169.960938 1506.039062 C 1179.558594 1554.316406 1192.269531 1600.050781 1203.128906 1646.742188 C 1207.019531 1663.492188 1210.679688 1680.367188 1213.871094 1697.523438 L 1218.941406 1723 C 1243.800781 1740.367188 1261.679688 1742.269531 1269.238281 1724.324219 C 1264.441406 1678.074219 1249.378906 1543.65625 1247.839844 1497.183594 L 1211.589844 1491.523438 C 1211.589844 1491.523438 1205.140625 1510.214844 1197.25 1508.144531 C 1189.359375 1506.070312 1186.570312 1503.019531 1184.660156 1501.742188 C 1182.738281 1500.46875 1169.960938 1506.039062 1169.960938 1506.039062 "/>
<path fill-rule="evenodd" fill="rgb(9.397888%, 20.776367%, 36.863708%)" fill-opacity="1" d="M 1498.589844 1847.382812 C 1494.128906 1850.121094 1475.171875 1867.585938 1475.171875 1867.585938 C 1458.441406 1879.1875 1442.691406 1890.796875 1422.710938 1895.777344 C 1418.429688 1896.84375 1414.199219 1897.921875 1410.601562 1899.097656 C 1404.421875 1901.113281 1397.609375 1909.511719 1405.230469 1915.628906 C 1421.109375 1928.386719 1463.339844 1916.777344 1482.761719 1914.515625 C 1488.761719 1913.816406 1494.789062 1913.65625 1500.789062 1913.230469 C 1510.03125 1912.578125 1522.308594 1912.582031 1530.839844 1909.226562 C 1543.808594 1904.121094 1539.910156 1896.34375 1532.238281 1872.652344 C 1531.070312 1869.035156 1519.441406 1846.128906 1520.851562 1841.742188 L 1511.261719 1845.195312 L 1514.769531 1851.574219 L 1498.589844 1847.382812 "/>
<path fill-rule="evenodd" fill="rgb(76.5625%, 83.201599%, 32.151794%)" fill-opacity="1" d="M 1385.828125 1665.78125 C 1406.25 1706.554688 1421.601562 1749.597656 1442.75 1788.644531 C 1450.339844 1802.65625 1457.75 1816.835938 1464.808594 1831.382812 L 1475.589844 1852.898438 C 1502.058594 1862.3125 1518.5 1859.628906 1520.851562 1841.742188 C 1505.21875 1801.597656 1466.011719 1679.902344 1453.238281 1638.757812 L 1419.460938 1642.601562 C 1419.460938 1642.601562 1418.28125 1660.878906 1410.730469 1660.964844 C 1403.171875 1661.050781 1399.929688 1659.007812 1397.910156 1658.335938 C 1395.878906 1657.664062 1385.828125 1665.78125 1385.828125 1665.78125 "/>
<path fill-rule="evenodd" fill="rgb(18.041992%, 32.151794%, 51.756287%)" fill-opacity="1" d="M 1396.28125 1081.179688 L 1352.671875 958.359375 L 1337.269531 956.328125 C 1289.121094 936.980469 1300.269531 973.648438 1310.210938 1018.960938 C 1318.570312 1057.058594 1330.261719 1105.441406 1344.238281 1140.769531 C 1375.761719 1220.398438 1438.28125 1182.941406 1396.28125 1081.179688 "/>
<path fill-rule="evenodd" fill="rgb(94.921875%, 74.414062%, 59.959412%)" fill-opacity="1" d="M 1485.601562 1109.839844 L 1463.769531 1117.210938 L 1438.78125 1117.921875 L 1421.378906 1101.390625 L 1426.589844 1067.789062 L 1430.171875 1052.929688 L 1451.261719 1041.078125 L 1470.300781 1049.910156 L 1481.699219 1050.621094 L 1485.601562 1109.839844 "/>
<path fill-rule="evenodd" fill="rgb(24.705505%, 10.984802%, 18.821716%)" fill-opacity="1" d="M 1412.789062 986.179688 C 1404.039062 999.921875 1405.859375 1053.121094 1412.019531 1035.871094 L 1418.519531 1017.621094 L 1421.089844 996.539062 L 1422.640625 983.640625 L 1412.789062 986.179688 "/>
<path fill-rule="evenodd" fill="rgb(98.826599%, 89.0625%, 76.951599%)" fill-opacity="1" d="M 1500.511719 1041.578125 C 1497.011719 1053.039062 1493.75 1066.28125 1487.058594 1076.011719 C 1475.050781 1093.449219 1454.691406 1101.910156 1432.550781 1088.488281 C 1431.890625 1088.078125 1431.238281 1087.671875 1430.628906 1087.230469 C 1416.570312 1077.121094 1413.269531 1057.871094 1413.289062 1045.078125 C 1413.289062 1044.089844 1413.101562 1043.128906 1413 1042.191406 C 1411.351562 1022.441406 1410.808594 1008.160156 1418.789062 994.238281 C 1432.769531 969.878906 1480.820312 958.730469 1497.078125 991.910156 C 1505.519531 1009.128906 1502.050781 1023.449219 1500.511719 1041.578125 "/>
<path fill-rule="evenodd" fill="rgb(24.705505%, 10.984802%, 18.821716%)" fill-opacity="1" d="M 1501.800781 1028.75 C 1502.558594 1021.039062 1503 1013.789062 1501.761719 1006.339844 L 1506.488281 1010.269531 L 1506.738281 1022.960938 C 1507.261719 1027.089844 1508.621094 1033 1504.171875 1030.171875 C 1503.828125 1029.960938 1502.019531 1028.398438 1501.800781 1028.75 "/>
<path fill-rule="evenodd" fill="rgb(24.705505%, 10.984802%, 18.821716%)" fill-opacity="1" d="M 1500.289062 1006.648438 C 1487.171875 980.960938 1448.21875 990.730469 1424.199219 992.28125 C 1395.75 1021.441406 1410.371094 931.910156 1485.921875 961.199219 C 1511.460938 971.101562 1511.101562 1004.179688 1506.738281 1022.960938 L 1500.289062 1006.648438 "/>
<path fill-rule="evenodd" fill="rgb(24.705505%, 10.984802%, 18.821716%)" fill-opacity="1" d="M 1498.421875 994.859375 C 1498.808594 994.691406 1486.320312 1019.300781 1501.800781 1028.75 L 1502.878906 1025.378906 L 1504.121094 1008.300781 L 1498.421875 994.859375 "/>
<path fill-rule="evenodd" fill="rgb(98.826599%, 89.0625%, 76.951599%)" fill-opacity="1" d="M 1499.199219 1046.71875 L 1491.839844 1048.140625 L 1494.628906 1040.601562 C 1495.410156 1039.308594 1499.269531 1032.601562 1502.460938 1027.71875 C 1514.550781 1009.210938 1521.730469 1040.660156 1499.199219 1046.71875 "/>
<path fill-rule="evenodd" fill="rgb(98.826599%, 89.0625%, 76.951599%)" fill-opacity="1" d="M 1415.5 1043.269531 L 1413.488281 1030.730469 C 1410.519531 1021.449219 1403.679688 1019.488281 1404.378906 1030.078125 C 1405.398438 1045.488281 1407.941406 1043.730469 1415.21875 1051.199219 L 1415.5 1043.269531 "/>
<path fill-rule="evenodd" fill="rgb(18.041992%, 32.151794%, 51.756287%)" fill-opacity="1" d="M 1446.179688 1106.671875 C 1507.691406 1102.78125 1558.230469 1077.410156 1565.980469 1135.929688 C 1577.140625 1220.140625 1518.351562 1250.28125 1538.128906 1381.738281 C 1495.488281 1433.65625 1405.480469 1443.550781 1337.820312 1401.515625 C 1355.851562 1260.878906 1304.980469 1064.25 1446.179688 1106.671875 "/>
<path fill-rule="evenodd" fill="rgb(18.041992%, 32.151794%, 51.756287%)" fill-opacity="1" d="M 1352.128906 978.53125 C 1300.730469 1084.480469 1270.269531 867.230469 1259.808594 816.429688 L 1299.878906 800.011719 L 1338.269531 912.421875 C 1349.128906 941.351562 1354.898438 944.960938 1352.128906 978.53125 "/>
<path fill-rule="evenodd" fill="rgb(94.921875%, 74.414062%, 59.959412%)" fill-opacity="1" d="M 1421.378906 1101.390625 C 1421.378906 1101.390625 1421.519531 1101.21875 1421.378906 1101.390625 C 1421.398438 1101.390625 1421.429688 1101.378906 1421.449219 1101.378906 C 1424.871094 1101.238281 1434.820312 1098.300781 1449.769531 1097.808594 C 1462.691406 1097.390625 1472.761719 1099.171875 1480.078125 1099.210938 C 1482.371094 1099.21875 1485.769531 1101.660156 1485.101562 1102.261719 C 1472.859375 1112.988281 1439 1135.699219 1421.378906 1101.390625 "/>
<path fill-rule="evenodd" fill="rgb(18.041992%, 32.151794%, 51.756287%)" fill-opacity="1" d="M 1631.199219 1134.648438 L 1714.460938 1170.300781 L 1723.828125 1193.101562 C 1736.050781 1241.019531 1699.761719 1226.980469 1654.78125 1211.878906 C 1617.179688 1199.261719 1567.820312 1172.519531 1529.179688 1160.410156 C 1486.050781 1146.890625 1458.191406 1044.53125 1631.199219 1134.648438 "/>
<path fill-rule="evenodd" fill="rgb(18.041992%, 32.151794%, 51.756287%)" fill-opacity="1" d="M 1707.011719 1200.308594 C 1628.808594 1275.769531 1683.039062 1048.96875 1695.328125 996.828125 L 1737.351562 1010.378906 C 1732.53125 1101.128906 1726.550781 1136.960938 1725.871094 1203.53125 L 1707.011719 1200.308594 "/>
<path fill-rule="evenodd" fill="rgb(24.705505%, 10.984802%, 18.821716%)" fill-opacity="1" d="M 1497.011719 973.878906 C 1479.539062 988.851562 1441.261719 1021.339844 1415.058594 1002.179688 L 1411.480469 995.148438 L 1427.339844 969.75 L 1448.46875 969.539062 C 1448.46875 969.539062 1467.53125 969.75 1469.601562 969.75 C 1471.660156 969.75 1497.011719 973.878906 1497.011719 973.878906 "/>
<path fill-rule="evenodd" fill="rgb(24.705505%, 10.984802%, 18.821716%)" fill-opacity="1" d="M 1463.511719 976.078125 C 1472.128906 988.289062 1491.011719 1014.78125 1503.929688 999.160156 L 1505.699219 993.429688 L 1497.878906 972.710938 L 1487.449219 972.539062 C 1487.449219 972.539062 1478.050781 972.710938 1477.03125 972.710938 C 1476.011719 972.710938 1463.511719 976.078125 1463.511719 976.078125 "/>
<path fill-rule="evenodd" fill="rgb(100%, 66.601562%, 0%)" fill-opacity="1" d="M 1427.761719 950.761719 L 1413.769531 956.121094 C 1462 980.300781 1474.570312 990.019531 1528.070312 992.558594 L 1516.910156 976.558594 L 1457.308594 954.039062 L 1427.761719 950.761719 "/>
<path fill-rule="evenodd" fill="rgb(100%, 84.375%, 21.946716%)" fill-opacity="1" d="M 1438.851562 937.488281 C 1435.238281 941.828125 1431.550781 946.238281 1427.761719 950.761719 C 1448.25 960.390625 1461.820312 966.160156 1477.28125 970.109375 C 1488.421875 972.960938 1500.53125 974.851562 1516.910156 976.558594 C 1516.699219 971.429688 1516.410156 966.371094 1516.070312 961.351562 C 1482.328125 958.46875 1466.359375 951.449219 1438.851562 937.488281 "/>
<path fill-rule="evenodd" fill="rgb(100%, 66.601562%, 0%)" fill-opacity="1" d="M 1438.851562 937.488281 C 1466.359375 951.449219 1482.328125 958.46875 1516.070312 961.351562 C 1515.730469 956.378906 1515.328125 951.460938 1514.898438 946.578125 C 1487.601562 942.550781 1472.410156 935.738281 1450.25 923.570312 C 1446.550781 928.160156 1442.75 932.78125 1438.851562 937.488281 "/>
<path fill-rule="evenodd" fill="rgb(100%, 84.375%, 21.946716%)" fill-opacity="1" d="M 1450.25 923.570312 C 1472.410156 935.738281 1487.601562 942.550781 1514.898438 946.578125 C 1514.179688 938.441406 1513.351562 930.390625 1512.488281 922.378906 C 1492.488281 921.820312 1478.21875 918.191406 1459.511719 911.859375 C 1456.488281 915.761719 1453.410156 919.648438 1450.25 923.570312 "/>
<path fill-rule="evenodd" fill="rgb(100%, 66.601562%, 0%)" fill-opacity="1" d="M 1459.511719 911.859375 C 1478.21875 918.191406 1492.488281 921.820312 1512.488281 922.378906 C 1512.039062 918.199219 1511.578125 914.019531 1511.121094 909.851562 C 1496.589844 905.691406 1485.539062 900.46875 1473.289062 893.261719 C 1468.859375 899.550781 1464.269531 905.710938 1459.511719 911.859375 "/>
<path fill-rule="evenodd" fill="rgb(100%, 84.375%, 21.946716%)" fill-opacity="1" d="M 1473.289062 893.261719 C 1485.539062 900.46875 1496.589844 905.691406 1511.121094 909.851562 C 1510.019531 899.898438 1508.929688 889.960938 1507.988281 879.941406 C 1499.519531 879.730469 1491.839844 878.839844 1483.980469 877.351562 C 1483.078125 878.761719 1482.179688 880.148438 1481.269531 881.539062 C 1478.660156 885.511719 1476.011719 889.410156 1473.289062 893.261719 "/>
<path fill-rule="evenodd" fill="rgb(100%, 66.601562%, 0%)" fill-opacity="1" d="M 1483.980469 877.351562 C 1491.839844 878.839844 1499.519531 879.730469 1507.988281 879.941406 C 1506.730469 866.558594 1505.730469 853.03125 1505.328125 839.101562 C 1498.578125 853.03125 1491.488281 865.558594 1483.980469 877.351562 "/>
<path fill-rule="evenodd" fill="rgb(93.75%, 29.417419%, 29.026794%)" fill-opacity="1" d="M 1497.621094 852.410156 C 1504.96875 856.671875 1514.390625 854.160156 1518.640625 846.808594 C 1522.898438 839.449219 1520.390625 830.039062 1513.039062 825.78125 C 1505.679688 821.519531 1496.269531 824.03125 1492.011719 831.378906 C 1487.761719 838.738281 1490.261719 848.148438 1497.621094 852.410156 "/>
<path fill-rule="nonzero" fill="rgb(75.78125%, 45.092773%, 63.867188%)" fill-opacity="1" d="M 560.410156 804.628906 C 561.722656 808.601562 563.476562 813.671875 565.070312 818.269531 C 569.382812 830.730469 572.492188 839.710938 572.445312 846.101562 C 572.386719 854.609375 568.601562 858.859375 559.328125 858.789062 C 547.65625 858.710938 535.976562 854.289062 525.796875 850.441406 C 520.152344 848.308594 515.023438 846.371094 511.304688 845.738281 C 507.570312 845.121094 506.207031 844.941406 506.195312 845.03125 C 505.628906 848.378906 508.757812 856.011719 512.074219 864.078125 C 515.296875 871.941406 518.675781 880.171875 519.769531 887.570312 C 521.5625 899.679688 518.195312 909.058594 502.894531 911.320312 C 493.117188 912.769531 485.234375 912.699219 478.925781 912.640625 C 475.75 912.609375 473.011719 912.589844 470.894531 912.769531 C 464.605469 913.339844 463.652344 919.039062 466.679688 952.71875 L 466.875 954.878906 L 465.773438 956.761719 L 461.507812 964.039062 L 449.703125 957.148438 L 452.867188 951.75 C 449.097656 908.328125 452.601562 900.691406 469.707031 899.148438 C 472.519531 898.898438 475.546875 898.929688 479.050781 898.960938 C 484.859375 899.011719 492.105469 899.078125 500.878906 897.78125 C 505.804688 897.050781 506.855469 893.808594 506.230469 889.578125 C 505.371094 883.78125 502.328125 876.371094 499.421875 869.289062 C 495.34375 859.351562 491.492188 849.96875 492.695312 842.808594 C 494.113281 834.390625 499.925781 829.960938 513.523438 832.25 C 518.59375 833.101562 524.320312 835.269531 530.621094 837.648438 C 539.496094 841 549.652344 844.839844 558.734375 845.101562 C 558.40625 840.910156 555.730469 833.179688 552.105469 822.710938 C 550.816406 818.988281 549.402344 814.898438 547.421875 808.910156 L 560.410156 804.628906 "/>
<path fill-rule="nonzero" fill="rgb(55.271912%, 39.208984%, 70.117188%)" fill-opacity="1" d="M 1845.730469 1754.996094 C 1844.230469 1758.898438 1842.371094 1763.933594 1840.691406 1768.496094 C 1836.121094 1780.878906 1832.839844 1789.785156 1828.75 1794.699219 C 1823.308594 1801.246094 1817.691406 1802.128906 1810.558594 1796.199219 C 1801.578125 1788.738281 1795.351562 1777.917969 1789.921875 1768.488281 C 1786.910156 1763.261719 1784.171875 1758.507812 1781.691406 1755.664062 C 1779.199219 1752.816406 1778.261719 1751.816406 1778.191406 1751.875 C 1775.628906 1754.109375 1773.210938 1761.988281 1770.660156 1770.339844 C 1768.171875 1778.460938 1765.570312 1786.960938 1761.71875 1793.382812 C 1755.429688 1803.886719 1746.878906 1809.003906 1733.609375 1801.050781 C 1725.128906 1795.972656 1719.089844 1790.921875 1714.238281 1786.875 C 1711.800781 1784.839844 1709.699219 1783.085938 1707.941406 1781.890625 C 1702.71875 1778.339844 1698.371094 1782.148438 1679.359375 1810.113281 L 1678.140625 1811.902344 L 1676.101562 1812.660156 L 1668.191406 1815.585938 L 1663.421875 1802.773438 L 1669.300781 1800.601562 C 1693.910156 1764.628906 1701.460938 1760.949219 1715.660156 1770.601562 C 1717.988281 1772.191406 1720.320312 1774.128906 1723.011719 1776.378906 C 1727.46875 1780.101562 1733.03125 1784.746094 1740.640625 1789.304688 C 1744.910156 1791.863281 1747.78125 1790.015625 1749.96875 1786.355469 C 1752.988281 1781.324219 1755.328125 1773.660156 1757.570312 1766.34375 C 1760.71875 1756.070312 1763.691406 1746.371094 1769.160156 1741.601562 C 1775.589844 1735.984375 1782.898438 1736.242188 1791.960938 1746.632812 C 1795.339844 1750.507812 1798.398438 1755.8125 1801.761719 1761.648438 C 1806.5 1769.871094 1811.921875 1779.28125 1818.78125 1785.234375 C 1821.179688 1781.785156 1824.011719 1774.109375 1827.839844 1763.722656 C 1829.210938 1760.019531 1830.710938 1755.964844 1832.980469 1750.074219 L 1845.730469 1754.996094 "/>
<path fill-rule="nonzero" fill="rgb(94.921875%, 58.006287%, 68.164062%)" fill-opacity="1" d="M 1384.230469 770.070312 C 1384.898438 766.789062 1385.691406 762.558594 1386.410156 758.730469 C 1388.351562 748.328125 1389.75 740.851562 1392.320312 736.421875 C 1395.738281 730.519531 1400.070312 729.058594 1406.5 732.789062 C 1414.589844 737.480469 1420.96875 745.199219 1426.53125 751.921875 C 1429.609375 755.648438 1432.410156 759.039062 1434.761719 760.949219 C 1437.101562 762.871094 1437.980469 763.53125 1438.03125 763.480469 C 1439.75 761.371094 1440.601562 754.820312 1441.5 747.878906 C 1442.378906 741.121094 1443.289062 734.058594 1445.46875 728.46875 C 1449.039062 719.320312 1455.101562 714.128906 1466.660156 718.628906 C 1474.039062 721.511719 1479.5 724.691406 1483.871094 727.238281 C 1486.070312 728.519531 1487.96875 729.621094 1489.519531 730.328125 C 1494.121094 732.441406 1497.050781 728.839844 1508.320312 704.191406 L 1509.039062 702.609375 L 1510.550781 701.738281 L 1516.410156 698.371094 L 1521.890625 707.851562 L 1517.550781 710.359375 C 1502.921875 742.089844 1497.449219 746.011719 1484.929688 740.289062 C 1482.871094 739.351562 1480.769531 738.121094 1478.351562 736.710938 C 1474.328125 734.371094 1469.308594 731.441406 1462.679688 728.859375 C 1458.960938 727.410156 1456.941406 729.261719 1455.699219 732.441406 C 1453.988281 736.820312 1453.171875 743.191406 1452.378906 749.28125 C 1451.269531 757.820312 1450.21875 765.878906 1446.539062 770.390625 C 1442.210938 775.691406 1436.410156 776.460938 1427.851562 769.46875 C 1424.660156 766.859375 1421.53125 763.078125 1418.089844 758.921875 C 1413.238281 753.050781 1407.699219 746.351562 1401.480469 742.558594 C 1400.039062 745.609375 1398.828125 752.058594 1397.199219 760.78125 C 1396.621094 763.890625 1395.980469 767.289062 1394.96875 772.25 L 1384.230469 770.070312 "/>
<path fill-rule="nonzero" fill="rgb(55.271912%, 39.208984%, 70.117188%)" fill-opacity="1" d="M 1123.878906 1305.238281 C 1126.058594 1304.261719 1128.839844 1302.949219 1131.359375 1301.769531 C 1138.199219 1298.570312 1143.121094 1296.269531 1146.761719 1295.910156 C 1151.609375 1295.429688 1154.261719 1297.339844 1154.769531 1302.621094 C 1155.421875 1309.269531 1153.609375 1316.179688 1152.03125 1322.199219 C 1151.148438 1325.539062 1150.351562 1328.578125 1150.21875 1330.738281 C 1150.078125 1332.898438 1150.070312 1333.679688 1150.109375 1333.691406 C 1152.058594 1333.808594 1156.210938 1331.570312 1160.609375 1329.199219 C 1164.890625 1326.898438 1169.371094 1324.480469 1173.519531 1323.421875 C 1180.308594 1321.671875 1185.851562 1323.03125 1188.050781 1331.601562 C 1189.460938 1337.078125 1189.890625 1341.570312 1190.230469 1345.171875 C 1190.398438 1346.980469 1190.550781 1348.539062 1190.789062 1349.730469 C 1191.488281 1353.28125 1194.789062 1353.480469 1213.78125 1349.738281 L 1215 1349.5 L 1216.128906 1350.019531 L 1220.53125 1352.011719 L 1217.308594 1359.140625 L 1214.050781 1357.660156 C 1189.558594 1362.410156 1185 1360.871094 1183.109375 1351.21875 C 1182.789062 1349.640625 1182.628906 1347.910156 1182.441406 1345.910156 C 1182.121094 1342.609375 1181.71875 1338.480469 1180.460938 1333.558594 C 1179.75 1330.800781 1177.839844 1330.398438 1175.480469 1331 C 1172.21875 1331.839844 1168.191406 1334.011719 1164.328125 1336.089844 C 1158.921875 1339.011719 1153.800781 1341.761719 1149.660156 1341.5 C 1144.78125 1341.199219 1141.910156 1338.160156 1142.398438 1330.28125 C 1142.578125 1327.339844 1143.46875 1323.949219 1144.449219 1320.21875 C 1145.828125 1314.96875 1147.410156 1308.960938 1147.019531 1303.78125 C 1144.648438 1304.210938 1140.410156 1306.199219 1134.671875 1308.890625 C 1132.621094 1309.839844 1130.378906 1310.890625 1127.089844 1312.378906 L 1123.878906 1305.238281 "/>
<path fill-rule="nonzero" fill="rgb(75.78125%, 45.092773%, 63.867188%)" fill-opacity="1" d="M 700.917969 1734.054688 C 701.074219 1731.667969 701.230469 1728.601562 701.371094 1725.820312 C 701.757812 1718.277344 702.035156 1712.851562 703.429688 1709.46875 C 705.289062 1704.964844 708.210938 1703.523438 713.117188 1705.550781 C 719.292969 1708.097656 724.542969 1712.949219 729.117188 1717.175781 C 731.652344 1719.519531 733.960938 1721.648438 735.796875 1722.777344 C 737.644531 1723.910156 738.328125 1724.296875 738.355469 1724.253906 C 739.375 1722.597656 739.351562 1717.878906 739.324219 1712.882812 C 739.300781 1708.019531 739.273438 1702.929688 740.28125 1698.769531 C 741.929688 1691.957031 745.730469 1687.703125 754.335938 1689.785156 C 759.832031 1691.117188 764 1692.847656 767.335938 1694.234375 C 769.011719 1694.929688 770.464844 1695.53125 771.625 1695.886719 C 775.085938 1696.933594 776.8125 1694.113281 782.4375 1675.59375 L 782.796875 1674.40625 L 783.785156 1673.644531 L 787.609375 1670.699219 L 792.394531 1676.886719 L 789.554688 1679.074219 C 782.238281 1702.925781 778.738281 1706.222656 769.332031 1703.367188 C 767.785156 1702.898438 766.183594 1702.234375 764.332031 1701.464844 C 761.261719 1700.1875 757.433594 1698.597656 752.496094 1697.402344 C 749.726562 1696.734375 748.472656 1698.230469 747.898438 1700.605469 C 747.109375 1703.867188 747.132812 1708.453125 747.15625 1712.835938 C 747.1875 1718.984375 747.214844 1724.789062 745.039062 1728.328125 C 742.480469 1732.496094 738.449219 1733.597656 731.722656 1729.464844 C 729.214844 1727.921875 726.644531 1725.546875 723.8125 1722.929688 C 719.824219 1719.242188 715.257812 1715.027344 710.492188 1712.941406 C 709.769531 1715.234375 709.527344 1719.910156 709.203125 1726.242188 C 709.089844 1728.496094 708.964844 1730.96875 708.726562 1734.574219 L 700.917969 1734.054688 "/>
<path fill-rule="nonzero" fill="rgb(32.151794%, 28.637695%, 61.131287%)" fill-opacity="1" d="M 905.898438 897.210938 L 933.753906 911.738281 L 927.425781 923.859375 L 899.570312 909.328125 L 905.898438 897.210938 "/>
<path fill-rule="nonzero" fill="rgb(94.921875%, 58.006287%, 68.164062%)" fill-opacity="1" d="M 927.996094 843.03125 L 956.5625 829.960938 L 962.25 842.390625 L 933.683594 855.46875 L 927.996094 843.03125 "/>
<path fill-rule="nonzero" fill="rgb(75.78125%, 45.092773%, 63.867188%)" fill-opacity="1" d="M 1605.25 1512.871094 L 1627.960938 1542.8125 L 1614.921875 1552.695312 L 1592.210938 1522.753906 L 1605.25 1512.871094 "/>
<path fill-rule="nonzero" fill="rgb(94.921875%, 58.006287%, 68.164062%)" fill-opacity="1" d="M 1720.179688 1470.824219 L 1757.761719 1471.261719 L 1757.558594 1487.617188 L 1719.988281 1487.179688 L 1720.179688 1470.824219 "/>
<path fill-rule="nonzero" fill="rgb(75.78125%, 45.092773%, 63.867188%)" fill-opacity="1" d="M 1661.988281 1351.21875 L 1697.230469 1338.160156 L 1702.898438 1353.5 L 1667.671875 1366.558594 L 1661.988281 1351.21875 "/>
<path fill-rule="nonzero" fill="rgb(94.921875%, 58.006287%, 68.164062%)" fill-opacity="1" d="M 627.917969 1457.457031 L 641.484375 1475.34375 L 633.699219 1481.246094 L 620.128906 1463.363281 L 627.917969 1457.457031 "/>
<path fill-rule="nonzero" fill="rgb(94.921875%, 58.006287%, 68.164062%)" fill-opacity="1" d="M 696.585938 1432.335938 L 719.035156 1432.597656 L 718.917969 1442.367188 L 696.46875 1442.105469 L 696.585938 1432.335938 "/>
<path fill-rule="nonzero" fill="rgb(94.921875%, 58.006287%, 68.164062%)" fill-opacity="1" d="M 661.816406 1360.878906 L 682.867188 1353.078125 L 686.261719 1362.238281 L 665.210938 1370.039062 L 661.816406 1360.878906 "/>
<path fill-rule="nonzero" fill="rgb(32.151794%, 28.637695%, 61.131287%)" fill-opacity="1" d="M 1602.21875 804.269531 L 1595.820312 828.488281 L 1585.289062 825.699219 L 1591.679688 801.488281 L 1602.21875 804.269531 "/>
<path fill-rule="nonzero" fill="rgb(75.78125%, 45.092773%, 63.867188%)" fill-opacity="1" d="M 1671.480469 847.359375 L 1686.671875 867.269531 L 1678 873.878906 L 1662.808594 853.96875 L 1671.480469 847.359375 "/>
<path fill-rule="nonzero" fill="rgb(32.151794%, 28.637695%, 61.131287%)" fill-opacity="1" d="M 1710.390625 767.71875 L 1731.710938 780.859375 L 1725.988281 790.140625 L 1704.671875 777 L 1710.390625 767.71875 "/>
<path fill-rule="nonzero" fill="rgb(100%, 89.0625%, 45.872498%)" fill-opacity="1" d="M 446.628906 1349.648438 C 446.324219 1350.148438 479.675781 1515.644531 490.878906 1607.558594 L 486.019531 1607.855469 C 476.496094 1516.714844 439.171875 1351.738281 441.894531 1350.738281 L 446.628906 1349.648438 "/>
<path fill-rule="nonzero" fill="rgb(100%, 89.0625%, 45.872498%)" fill-opacity="1" d="M 425.980469 1408.929688 C 467.597656 1481.003906 476.695312 1530.472656 487.886719 1591.332031 C 489.269531 1598.859375 490.6875 1606.566406 492.203125 1614.511719 L 487.519531 1615.867188 C 485.972656 1607.757812 484.527344 1599.894531 483.113281 1592.214844 C 472.007812 1531.824219 462.980469 1482.738281 421.765625 1411.355469 L 425.980469 1408.929688 "/>
<path fill-rule="nonzero" fill="rgb(100%, 89.0625%, 45.872498%)" fill-opacity="1" d="M 493.175781 1347.660156 C 493.144531 1348.269531 480.902344 1558.617188 490.828125 1607.230469 L 486.070312 1608.1875 C 476.015625 1558.949219 488.292969 1348.011719 488.328125 1347.398438 L 493.175781 1347.660156 "/>
<path fill-rule="evenodd" fill="rgb(79.296875%, 85.9375%, 35.276794%)" fill-opacity="1" d="M 354.367188 1264.589844 C 382.476562 1251.171875 417.511719 1265.941406 432.625 1297.589844 C 447.601562 1328.949219 426.976562 1370.261719 423.875 1410.140625 C 390.910156 1387.480469 345.816406 1377.558594 330.839844 1346.199219 C 315.726562 1314.550781 326.261719 1278.011719 354.367188 1264.589844 "/>
<path fill-rule="evenodd" fill="rgb(79.296875%, 85.9375%, 35.276794%)" fill-opacity="1" d="M 418.511719 1418.328125 L 433.613281 1411.117188 C 436.132812 1409.914062 437.210938 1406.867188 436.003906 1404.351562 L 436.003906 1404.347656 C 434.800781 1401.828125 431.757812 1400.753906 429.238281 1401.957031 L 414.136719 1409.167969 C 411.617188 1410.371094 410.539062 1413.414062 411.742188 1415.933594 C 412.945312 1418.453125 415.992188 1419.53125 418.511719 1418.328125 "/>
<path fill-rule="evenodd" fill="rgb(100%, 100%, 100%)" fill-opacity="1" d="M 340.441406 1331.269531 C 337.496094 1330.71875 333.148438 1326.699219 332.789062 1318.199219 C 332.628906 1311.96875 334.195312 1301.78125 336.175781 1298.140625 C 338.421875 1294.019531 342.730469 1289.96875 342.738281 1301.789062 C 342.746094 1310.839844 341.953125 1308.988281 343.207031 1318.980469 C 344.242188 1327.21875 344.324219 1331.578125 340.441406 1331.269531 "/>
<path fill-rule="evenodd" fill="rgb(100%, 100%, 100%)" fill-opacity="1" d="M 340.652344 1291.488281 C 338.761719 1290.289062 338.394531 1284.789062 343.335938 1280.328125 C 345.863281 1278.039062 349.390625 1276.121094 345.316406 1283.660156 C 343.855469 1286.359375 343.902344 1292.921875 340.652344 1291.488281 "/>
<path fill-rule="evenodd" fill="rgb(93.75%, 29.417419%, 29.026794%)" fill-opacity="1" d="M 414.488281 1189.148438 C 446.597656 1183.210938 478.046875 1207.710938 484.730469 1243.859375 C 491.355469 1279.691406 459.226562 1315.898438 445.226562 1355.429688 C 418.023438 1323.511719 375.074219 1301.191406 368.453125 1265.359375 C 361.769531 1229.210938 382.378906 1195.078125 414.488281 1189.148438 "/>
<path fill-rule="evenodd" fill="rgb(93.75%, 29.417419%, 29.026794%)" fill-opacity="1" d="M 437.570312 1362.25 L 454.820312 1359.070312 C 457.699219 1358.53125 459.617188 1355.738281 459.085938 1352.871094 C 458.554688 1349.988281 455.765625 1348.070312 452.886719 1348.601562 L 435.636719 1351.789062 C 432.757812 1352.320312 430.839844 1355.109375 431.371094 1357.988281 C 431.902344 1360.871094 434.691406 1362.789062 437.570312 1362.25 "/>
<path fill-rule="evenodd" fill="rgb(100%, 100%, 100%)" fill-opacity="1" d="M 382.234375 1252.859375 C 379.40625 1251.511719 376.097656 1246.25 378.046875 1237.550781 C 379.582031 1231.199219 383.941406 1221.308594 386.933594 1218.160156 C 390.328125 1214.601562 395.796875 1211.671875 392.589844 1223.640625 C 390.128906 1232.800781 389.832031 1230.71875 388.382812 1241.171875 C 387.1875 1249.800781 386.078125 1254.238281 382.234375 1252.859375 "/>
<path fill-rule="evenodd" fill="rgb(100%, 100%, 100%)" fill-opacity="1" d="M 393.28125 1212.648438 C 391.691406 1210.910156 392.816406 1205.25 399.03125 1202.078125 C 402.21875 1200.449219 406.3125 1199.460938 400.132812 1205.988281 C 397.917969 1208.328125 396.179688 1214.980469 393.28125 1212.648438 "/>
<path fill-rule="evenodd" fill="rgb(5.880737%, 73.242188%, 76.951599%)" fill-opacity="1" d="M 513.855469 1214.839844 C 487.398438 1210.238281 461.746094 1230.648438 456.5625 1260.441406 C 451.421875 1289.960938 478.152344 1319.460938 490.003906 1351.839844 C 512.101562 1325.371094 547.226562 1306.640625 552.363281 1277.121094 C 557.550781 1247.328125 540.308594 1219.449219 513.855469 1214.839844 "/>
<path fill-rule="evenodd" fill="rgb(5.880737%, 73.242188%, 76.951599%)" fill-opacity="1" d="M 496.359375 1357.390625 L 482.144531 1354.921875 C 479.773438 1354.5 478.171875 1352.230469 478.585938 1349.859375 C 478.996094 1347.480469 481.273438 1345.878906 483.644531 1346.289062 L 497.859375 1348.769531 C 500.230469 1349.179688 501.835938 1351.460938 501.421875 1353.828125 C 501.007812 1356.199219 498.730469 1357.800781 496.359375 1357.390625 "/>
<path fill-rule="evenodd" fill="rgb(100%, 100%, 100%)" fill-opacity="1" d="M 540.925781 1266.960938 C 543.238281 1265.820312 545.914062 1261.46875 544.238281 1254.328125 C 542.921875 1249.121094 539.25 1241.03125 536.761719 1238.46875 C 533.9375 1235.570312 529.417969 1233.199219 532.160156 1243.019531 C 534.257812 1250.53125 534.484375 1248.808594 535.769531 1257.398438 C 536.824219 1264.480469 537.773438 1268.128906 540.925781 1266.960938 "/>
<path fill-rule="evenodd" fill="rgb(100%, 100%, 100%)" fill-opacity="1" d="M 531.496094 1233.980469 C 532.789062 1232.550781 531.8125 1227.898438 526.675781 1225.339844 C 524.042969 1224.03125 520.664062 1223.261719 525.804688 1228.570312 C 527.644531 1230.480469 529.132812 1235.929688 531.496094 1233.980469 "/>
<path fill-rule="evenodd" fill="rgb(100%, 36.863708%, 38.818359%)" fill-opacity="1" d="M 469.964844 1551.183594 C 427.183594 1570.054688 409.128906 1538.699219 428.527344 1516.347656 C 390.792969 1537.117188 407.40625 1583.765625 457.867188 1560.976562 C 459.539062 1560.222656 465.457031 1555.042969 469.964844 1551.183594 "/>
<path fill-rule="evenodd" fill="rgb(85.9375%, 22.338867%, 24.31488%)" fill-opacity="1" d="M 427.890625 1526.425781 C 445.507812 1518.304688 466.699219 1519.878906 470.550781 1546.699219 C 470.71875 1547.863281 470.878906 1549.082031 471.015625 1550.285156 C 472.929688 1548.65625 474.464844 1547.390625 475.105469 1547.011719 C 476.363281 1546.261719 475.738281 1539.90625 474.992188 1534.707031 C 471.140625 1507.886719 449.949219 1506.3125 432.332031 1514.429688 C 431.007812 1515.039062 429.738281 1515.683594 428.527344 1516.347656 C 424.765625 1520.683594 422.410156 1525.355469 421.375 1529.9375 C 423.371094 1528.683594 425.539062 1527.507812 427.890625 1526.425781 "/>
<path fill-rule="evenodd" fill="rgb(100%, 43.920898%, 48.631287%)" fill-opacity="1" d="M 420.460938 1520.816406 C 416.8125 1528.519531 416.488281 1536.925781 418.550781 1544.910156 C 421.652344 1556.941406 427.425781 1563.59375 434.699219 1566.554688 C 421.121094 1567.699219 409.613281 1562.097656 404.722656 1543.144531 C 402.660156 1535.160156 402.984375 1526.753906 406.632812 1519.050781 C 411.34375 1509.097656 420.792969 1501.566406 432.066406 1498.351562 C 440.855469 1495.84375 449.210938 1496.082031 456.851562 1498.351562 C 453.292969 1498.480469 449.632812 1499.050781 445.894531 1500.117188 C 434.621094 1503.332031 425.171875 1510.863281 420.460938 1520.816406 "/>
<path fill-rule="evenodd" fill="rgb(85.9375%, 22.338867%, 24.31488%)" fill-opacity="1" d="M 456.851562 1498.351562 C 474.460938 1503.578125 488.300781 1519.59375 495.03125 1537.667969 C 492.136719 1539.65625 488.769531 1541.964844 485.070312 1544.390625 C 476.304688 1522.828125 457.410156 1504.746094 434.234375 1505.390625 C 437.769531 1503.101562 441.703125 1501.3125 445.894531 1500.117188 C 449.632812 1499.050781 453.292969 1498.480469 456.851562 1498.351562 "/>
<path fill-rule="evenodd" fill="rgb(100%, 36.863708%, 38.818359%)" fill-opacity="1" d="M 502.101562 1551.960938 C 539.503906 1551.738281 540.476562 1507.097656 518.320312 1491.570312 C 552.863281 1496.046875 558.675781 1557.289062 514.355469 1556.949219 C 512.890625 1556.9375 506.746094 1554.058594 502.101562 1551.960938 "/>
<path fill-rule="evenodd" fill="rgb(85.9375%, 22.338867%, 24.31488%)" fill-opacity="1" d="M 522.566406 1502.664062 C 507.035156 1502.359375 492.617188 1514.84375 499.996094 1547.175781 C 500.316406 1548.578125 500.664062 1550.042969 501.019531 1551.472656 C 499.050781 1550.59375 497.484375 1549.933594 496.890625 1549.828125 C 495.714844 1549.613281 493.765625 1542.101562 492.335938 1535.832031 C 484.957031 1503.496094 499.371094 1491.015625 514.902344 1491.316406 C 516.070312 1491.339844 517.210938 1491.425781 518.320312 1491.570312 C 522.617188 1494.578125 526.046875 1498.6875 528.503906 1503.351562 C 526.621094 1502.941406 524.640625 1502.703125 522.566406 1502.664062 "/>
<path fill-rule="evenodd" fill="rgb(100%, 43.920898%, 48.631287%)" fill-opacity="1" d="M 532.457031 1486.671875 C 539.734375 1491.109375 544.617188 1497.960938 547.277344 1505.765625 C 551.285156 1517.527344 550.109375 1526.253906 545.652344 1532.722656 C 557.632812 1526.230469 564.179688 1515.230469 557.867188 1496.703125 C 555.207031 1488.894531 550.324219 1482.046875 543.046875 1477.609375 C 533.644531 1471.875 521.617188 1470.765625 510.425781 1474.261719 C 501.703125 1476.988281 494.851562 1481.769531 489.707031 1487.863281 C 492.753906 1486.015625 496.125 1484.484375 499.835938 1483.324219 C 511.023438 1479.828125 523.054688 1480.9375 532.457031 1486.671875 "/>
<path fill-rule="evenodd" fill="rgb(85.9375%, 22.338867%, 24.31488%)" fill-opacity="1" d="M 489.707031 1487.863281 C 477.855469 1501.898438 475.070312 1522.878906 479.363281 1541.683594 C 482.878906 1541.757812 486.957031 1541.835938 491.382812 1541.835938 C 486.878906 1519 492.75 1493.515625 512.476562 1481.335938 C 508.265625 1481.363281 503.992188 1482.023438 499.835938 1483.324219 C 496.125 1484.484375 492.753906 1486.015625 489.707031 1487.863281 "/>
<path fill-rule="evenodd" fill="rgb(100%, 84.375%, 21.946716%)" fill-opacity="1" d="M 453.449219 1544.867188 L 596.402344 1527.875 L 608.542969 1690.300781 L 497.699219 1703.289062 L 453.449219 1544.867188 "/>
<path fill-rule="evenodd" fill="rgb(100%, 74.804688%, 0%)" fill-opacity="1" d="M 402.597656 1627.984375 L 451.847656 1741.875 L 497.699219 1703.289062 L 453.449219 1544.867188 L 402.597656 1627.984375 "/>
<path fill-rule="evenodd" fill="rgb(94.139099%, 68.943787%, 15.281677%)" fill-opacity="1" d="M 608.542969 1690.300781 L 567.941406 1720.277344 L 451.847656 1741.875 L 497.699219 1703.289062 L 608.542969 1690.300781 "/>
<path fill-rule="evenodd" fill="rgb(100%, 74.804688%, 0%)" fill-opacity="1" d="M 604.835938 1553.933594 L 598.757812 1559.378906 L 462.070312 1575.738281 L 459.230469 1571.117188 C 459.230469 1571.117188 604.816406 1553.683594 604.835938 1553.933594 "/>
<path fill-rule="evenodd" fill="rgb(94.139099%, 68.943787%, 15.281677%)" fill-opacity="1" d="M 409.464844 1651.835938 L 413.539062 1653.074219 L 462.070312 1575.738281 L 459.230469 1571.117188 L 409.464844 1651.835938 "/>
<path fill-rule="evenodd" fill="rgb(100%, 66.601562%, 0%)" fill-opacity="1" d="M 604.835938 1553.933594 L 601.621094 1510.925781 L 450.230469 1528.535156 L 459.230469 1571.117188 L 604.835938 1553.933594 "/>
<path fill-rule="evenodd" fill="rgb(100%, 59.959412%, 0%)" fill-opacity="1" d="M 450.230469 1528.535156 L 394.539062 1619.113281 L 409.464844 1651.835938 L 459.230469 1571.117188 L 450.230469 1528.535156 "/>
<path fill-rule="evenodd" fill="rgb(90.234375%, 24.31488%, 26.660156%)" fill-opacity="1" d="M 479.867188 1718.292969 C 460.054688 1671.035156 442.898438 1619.613281 423.351562 1572.253906 L 410.644531 1592.914062 C 431.375 1635.765625 447.511719 1685.398438 467.808594 1728.445312 L 479.867188 1718.292969 "/>
<path fill-rule="evenodd" fill="rgb(100%, 36.863708%, 38.818359%)" fill-opacity="1" d="M 545.667969 1697.667969 L 572.269531 1694.550781 C 564.003906 1640.183594 555.734375 1585.8125 547.464844 1531.445312 L 545.660156 1517.4375 L 514.210938 1521.09375 L 516.507812 1533.703125 C 526.230469 1588.355469 535.949219 1643.011719 545.667969 1697.667969 "/>
<path fill-rule="evenodd" fill="rgb(90.234375%, 24.31488%, 26.660156%)" fill-opacity="1" d="M 572.269531 1694.550781 L 545.667969 1697.667969 L 513.59375 1730.390625 L 542.132812 1725.078125 L 572.269531 1694.550781 "/>
<path fill-rule="evenodd" fill="rgb(90.234375%, 24.31488%, 26.660156%)" fill-opacity="1" d="M 592.769531 1701.945312 L 479.867188 1718.292969 L 467.808594 1728.445312 L 578.167969 1712.726562 L 592.769531 1701.945312 "/>
<path fill-rule="nonzero" fill="rgb(100%, 89.0625%, 45.872498%)" fill-opacity="1" d="M 1967.140625 1292.378906 C 1967.410156 1292.828125 1937.800781 1439.746094 1927.859375 1521.347656 L 1932.171875 1521.613281 C 1940.621094 1440.699219 1973.761719 1294.238281 1971.339844 1293.351562 L 1967.140625 1292.378906 "/>
<path fill-rule="nonzero" fill="rgb(100%, 89.0625%, 45.872498%)" fill-opacity="1" d="M 1985.46875 1345.011719 C 1948.519531 1408.992188 1940.449219 1452.914062 1930.511719 1506.941406 C 1929.28125 1513.625 1928.019531 1520.464844 1926.679688 1527.519531 L 1930.839844 1528.722656 C 1932.210938 1521.523438 1933.488281 1514.542969 1934.75 1507.722656 C 1944.609375 1454.113281 1952.621094 1410.53125 1989.210938 1347.160156 L 1985.46875 1345.011719 "/>
<path fill-rule="nonzero" fill="rgb(100%, 89.0625%, 45.872498%)" fill-opacity="1" d="M 1925.808594 1290.621094 C 1925.839844 1291.160156 1936.710938 1477.898438 1927.898438 1521.054688 L 1932.121094 1521.902344 C 1941.050781 1478.191406 1930.148438 1290.921875 1930.121094 1290.378906 L 1925.808594 1290.621094 "/>
<path fill-rule="evenodd" fill="rgb(79.296875%, 85.9375%, 35.276794%)" fill-opacity="1" d="M 2049.050781 1216.859375 C 2024.089844 1204.949219 1992.988281 1218.070312 1979.570312 1246.160156 C 1966.28125 1274.011719 1984.589844 1310.679688 1987.339844 1346.078125 C 2016.609375 1325.96875 2056.640625 1317.160156 2069.929688 1289.308594 C 2083.351562 1261.21875 2074 1228.78125 2049.050781 1216.859375 "/>
<path fill-rule="evenodd" fill="rgb(79.296875%, 85.9375%, 35.276794%)" fill-opacity="1" d="M 1992.101562 1353.351562 L 1978.699219 1346.949219 C 1976.460938 1345.878906 1975.5 1343.179688 1976.570312 1340.941406 C 1977.640625 1338.699219 1980.339844 1337.75 1982.578125 1338.820312 L 1995.988281 1345.21875 C 1998.21875 1346.289062 1999.179688 1348.988281 1998.109375 1351.230469 C 1997.039062 1353.460938 1994.339844 1354.421875 1992.101562 1353.351562 "/>
<path fill-rule="evenodd" fill="rgb(100%, 100%, 100%)" fill-opacity="1" d="M 2061.410156 1276.058594 C 2064.019531 1275.570312 2067.878906 1272.011719 2068.199219 1264.460938 C 2068.351562 1258.929688 2066.960938 1249.878906 2065.199219 1246.648438 C 2063.210938 1242.988281 2059.378906 1239.390625 2059.371094 1249.890625 C 2059.371094 1257.921875 2060.070312 1256.28125 2058.949219 1265.148438 C 2058.039062 1272.46875 2057.960938 1276.339844 2061.410156 1276.058594 "/>
<path fill-rule="evenodd" fill="rgb(100%, 100%, 100%)" fill-opacity="1" d="M 2061.21875 1240.738281 C 2062.898438 1239.679688 2063.230469 1234.800781 2058.839844 1230.839844 C 2056.601562 1228.808594 2053.460938 1227.101562 2057.078125 1233.800781 C 2058.378906 1236.199219 2058.339844 1242.019531 2061.21875 1240.738281 "/>
<path fill-rule="evenodd" fill="rgb(93.75%, 29.417419%, 29.026794%)" fill-opacity="1" d="M 1995.671875 1149.890625 C 1967.171875 1144.621094 1939.25 1166.371094 1933.308594 1198.46875 C 1927.429688 1230.269531 1955.960938 1262.410156 1968.378906 1297.511719 C 1992.53125 1269.179688 2030.660156 1249.359375 2036.539062 1217.550781 C 2042.480469 1185.449219 2024.179688 1155.160156 1995.671875 1149.890625 "/>
<path fill-rule="evenodd" fill="rgb(93.75%, 29.417419%, 29.026794%)" fill-opacity="1" d="M 1975.179688 1303.570312 L 1959.871094 1300.738281 C 1957.308594 1300.269531 1955.609375 1297.789062 1956.078125 1295.238281 L 1956.078125 1295.230469 C 1956.550781 1292.679688 1959.03125 1290.980469 1961.578125 1291.449219 L 1976.898438 1294.28125 C 1979.449219 1294.75 1981.160156 1297.230469 1980.691406 1299.78125 C 1980.210938 1302.339844 1977.738281 1304.039062 1975.179688 1303.570312 "/>
<path fill-rule="evenodd" fill="rgb(100%, 100%, 100%)" fill-opacity="1" d="M 2024.308594 1206.449219 C 2026.820312 1205.25 2029.761719 1200.589844 2028.03125 1192.859375 C 2026.660156 1187.21875 2022.789062 1178.441406 2020.128906 1175.648438 C 2017.121094 1172.488281 2012.269531 1169.890625 2015.121094 1180.511719 C 2017.300781 1188.648438 2017.558594 1186.789062 2018.851562 1196.070312 C 2019.910156 1203.730469 2020.890625 1207.679688 2024.308594 1206.449219 "/>
<path fill-rule="evenodd" fill="rgb(100%, 100%, 100%)" fill-opacity="1" d="M 2014.5 1170.75 C 2015.910156 1169.210938 2014.910156 1164.179688 2009.390625 1161.371094 C 2006.570312 1159.921875 2002.929688 1159.050781 2008.421875 1164.839844 C 2010.378906 1166.921875 2011.929688 1172.828125 2014.5 1170.75 "/>
<path fill-rule="evenodd" fill="rgb(5.880737%, 73.242188%, 76.951599%)" fill-opacity="1" d="M 1907.460938 1172.699219 C 1930.941406 1168.609375 1953.71875 1186.738281 1958.320312 1213.179688 C 1962.878906 1239.390625 1939.148438 1265.570312 1928.628906 1294.328125 C 1909.011719 1270.820312 1877.828125 1254.191406 1873.269531 1227.988281 C 1868.660156 1201.539062 1883.96875 1176.789062 1907.460938 1172.699219 "/>
<path fill-rule="evenodd" fill="rgb(5.880737%, 73.242188%, 76.951599%)" fill-opacity="1" d="M 1922.988281 1299.25 L 1935.609375 1297.058594 C 1937.710938 1296.691406 1939.140625 1294.671875 1938.769531 1292.558594 C 1938.398438 1290.460938 1936.378906 1289.03125 1934.28125 1289.398438 L 1921.660156 1291.601562 C 1919.550781 1291.960938 1918.128906 1293.988281 1918.5 1296.089844 C 1918.859375 1298.199219 1920.878906 1299.621094 1922.988281 1299.25 "/>
<path fill-rule="evenodd" fill="rgb(100%, 100%, 100%)" fill-opacity="1" d="M 1883.429688 1218.96875 C 1881.371094 1217.960938 1879 1214.101562 1880.480469 1207.761719 C 1881.648438 1203.128906 1884.910156 1195.949219 1887.121094 1193.671875 C 1889.628906 1191.101562 1893.640625 1189 1891.210938 1197.710938 C 1889.339844 1204.390625 1889.140625 1202.859375 1888 1210.480469 C 1887.058594 1216.769531 1886.21875 1220 1883.429688 1218.96875 "/>
<path fill-rule="evenodd" fill="rgb(100%, 100%, 100%)" fill-opacity="1" d="M 1891.800781 1189.691406 C 1890.648438 1188.421875 1891.511719 1184.289062 1896.078125 1182.019531 C 1898.410156 1180.859375 1901.410156 1180.171875 1896.851562 1184.890625 C 1895.210938 1186.578125 1893.890625 1191.421875 1891.800781 1189.691406 "/>
<path fill-rule="evenodd" fill="rgb(100%, 36.863708%, 38.818359%)" fill-opacity="1" d="M 1946.421875 1471.296875 C 1984.398438 1488.050781 2000.429688 1460.214844 1983.210938 1440.371094 C 2016.710938 1458.8125 2001.960938 1500.226562 1957.160156 1479.992188 C 1955.679688 1479.324219 1950.421875 1474.726562 1946.421875 1471.296875 "/>
<path fill-rule="evenodd" fill="rgb(85.9375%, 22.338867%, 24.31488%)" fill-opacity="1" d="M 1983.769531 1449.316406 C 1968.140625 1442.109375 1949.320312 1443.507812 1945.898438 1467.316406 C 1945.75 1468.351562 1945.609375 1469.433594 1945.488281 1470.503906 C 1943.789062 1469.054688 1942.429688 1467.929688 1941.859375 1467.59375 C 1940.738281 1466.929688 1941.300781 1461.289062 1941.960938 1456.671875 C 1945.378906 1432.859375 1964.191406 1431.464844 1979.828125 1438.671875 C 1981.011719 1439.210938 1982.128906 1439.78125 1983.210938 1440.371094 C 1986.550781 1444.222656 1988.640625 1448.371094 1989.558594 1452.4375 C 1987.789062 1451.324219 1985.859375 1450.277344 1983.769531 1449.316406 "/>
<path fill-rule="evenodd" fill="rgb(100%, 43.920898%, 48.631287%)" fill-opacity="1" d="M 1990.371094 1444.339844 C 1993.609375 1451.179688 1993.898438 1458.640625 1992.070312 1465.730469 C 1989.308594 1476.410156 1984.191406 1482.316406 1977.730469 1484.941406 C 1989.78125 1485.960938 2000 1480.988281 2004.339844 1464.164062 C 2006.171875 1457.074219 2005.890625 1449.609375 2002.648438 1442.773438 C 1998.460938 1433.933594 1990.078125 1427.25 1980.070312 1424.394531 C 1972.269531 1422.167969 1964.851562 1422.378906 1958.058594 1424.394531 C 1961.21875 1424.507812 1964.46875 1425.015625 1967.789062 1425.960938 C 1977.800781 1428.816406 1986.191406 1435.503906 1990.371094 1444.339844 "/>
<path fill-rule="evenodd" fill="rgb(85.9375%, 22.338867%, 24.31488%)" fill-opacity="1" d="M 1958.058594 1424.394531 C 1942.429688 1429.035156 1930.140625 1443.253906 1924.171875 1459.300781 C 1926.738281 1461.0625 1929.730469 1463.113281 1933.011719 1465.269531 C 1940.789062 1446.125 1957.570312 1430.074219 1978.140625 1430.644531 C 1975.011719 1428.613281 1971.511719 1427.023438 1967.789062 1425.960938 C 1964.46875 1425.015625 1961.21875 1424.507812 1958.058594 1424.394531 "/>
<path fill-rule="evenodd" fill="rgb(100%, 36.863708%, 38.818359%)" fill-opacity="1" d="M 1917.890625 1471.988281 C 1884.691406 1471.789062 1883.820312 1432.15625 1903.488281 1418.371094 C 1872.820312 1422.347656 1867.671875 1476.71875 1907.011719 1476.417969 C 1908.308594 1476.40625 1913.769531 1473.847656 1917.890625 1471.988281 "/>
<path fill-rule="evenodd" fill="rgb(85.9375%, 22.338867%, 24.31488%)" fill-opacity="1" d="M 1899.71875 1428.222656 C 1913.511719 1427.953125 1926.308594 1439.035156 1919.761719 1467.742188 C 1919.480469 1468.984375 1919.171875 1470.285156 1918.851562 1471.554688 C 1920.601562 1470.773438 1921.988281 1470.1875 1922.519531 1470.09375 C 1923.558594 1469.90625 1925.289062 1463.234375 1926.558594 1457.667969 C 1933.109375 1428.964844 1920.320312 1417.878906 1906.53125 1418.148438 C 1905.488281 1418.171875 1904.480469 1418.246094 1903.488281 1418.371094 C 1899.679688 1421.046875 1896.628906 1424.691406 1894.449219 1428.835938 C 1896.128906 1428.46875 1897.878906 1428.257812 1899.71875 1428.222656 "/>
<path fill-rule="evenodd" fill="rgb(100%, 43.920898%, 48.631287%)" fill-opacity="1" d="M 1890.941406 1414.027344 C 1884.480469 1417.964844 1880.148438 1424.046875 1877.789062 1430.976562 C 1874.230469 1441.417969 1875.269531 1449.167969 1879.230469 1454.90625 C 1868.589844 1449.144531 1862.78125 1439.378906 1868.378906 1422.929688 C 1870.738281 1416 1875.078125 1409.921875 1881.539062 1405.980469 C 1889.890625 1400.886719 1900.570312 1399.898438 1910.5 1403.007812 C 1918.25 1405.429688 1924.328125 1409.675781 1928.898438 1415.085938 C 1926.191406 1413.445312 1923.199219 1412.085938 1919.898438 1411.054688 C 1909.96875 1407.949219 1899.289062 1408.933594 1890.941406 1414.027344 "/>
<path fill-rule="evenodd" fill="rgb(85.9375%, 22.338867%, 24.31488%)" fill-opacity="1" d="M 1928.898438 1415.085938 C 1939.421875 1427.542969 1941.890625 1446.171875 1938.078125 1462.863281 C 1934.960938 1462.929688 1931.339844 1463 1927.410156 1463 C 1931.410156 1442.726562 1926.191406 1420.101562 1908.679688 1409.289062 C 1912.421875 1409.3125 1916.210938 1409.902344 1919.898438 1411.054688 C 1923.199219 1412.085938 1926.191406 1413.445312 1928.898438 1415.085938 "/>
<path fill-rule="evenodd" fill="rgb(100%, 84.375%, 21.946716%)" fill-opacity="1" d="M 1961.078125 1465.691406 L 1834.171875 1450.605469 L 1823.390625 1594.804688 L 1921.800781 1606.335938 L 1961.078125 1465.691406 "/>
<path fill-rule="evenodd" fill="rgb(100%, 74.804688%, 0%)" fill-opacity="1" d="M 2006.230469 1539.484375 L 1962.511719 1640.589844 L 1921.800781 1606.335938 L 1961.078125 1465.691406 L 2006.230469 1539.484375 "/>
<path fill-rule="evenodd" fill="rgb(94.139099%, 68.943787%, 15.281677%)" fill-opacity="1" d="M 1823.390625 1594.804688 L 1859.441406 1621.417969 L 1962.511719 1640.589844 L 1921.800781 1606.335938 L 1823.390625 1594.804688 "/>
<path fill-rule="evenodd" fill="rgb(100%, 74.804688%, 0%)" fill-opacity="1" d="M 1826.679688 1473.738281 L 1832.078125 1478.574219 L 1953.429688 1493.097656 L 1955.949219 1488.996094 C 1955.949219 1488.996094 1826.699219 1473.515625 1826.679688 1473.738281 "/>
<path fill-rule="evenodd" fill="rgb(94.139099%, 68.943787%, 15.281677%)" fill-opacity="1" d="M 2000.128906 1560.65625 L 1996.519531 1561.753906 L 1953.429688 1493.097656 L 1955.949219 1488.996094 L 2000.128906 1560.65625 "/>
<path fill-rule="evenodd" fill="rgb(100%, 66.601562%, 0%)" fill-opacity="1" d="M 1826.679688 1473.738281 L 1829.539062 1435.558594 L 1963.941406 1451.191406 L 1955.949219 1488.996094 L 1826.679688 1473.738281 "/>
<path fill-rule="evenodd" fill="rgb(100%, 59.959412%, 0%)" fill-opacity="1" d="M 1963.941406 1451.191406 L 2013.378906 1531.605469 L 2000.128906 1560.65625 L 1955.949219 1488.996094 L 1963.941406 1451.191406 "/>
<path fill-rule="evenodd" fill="rgb(90.234375%, 24.31488%, 26.660156%)" fill-opacity="1" d="M 1937.628906 1619.65625 C 1955.21875 1577.699219 1970.449219 1532.046875 1987.808594 1490.003906 L 1999.078125 1508.347656 C 1980.679688 1546.386719 1966.359375 1590.449219 1948.339844 1628.667969 L 1937.628906 1619.65625 "/>
<path fill-rule="evenodd" fill="rgb(100%, 36.863708%, 38.818359%)" fill-opacity="1" d="M 1879.210938 1601.34375 L 1855.601562 1598.578125 C 1862.941406 1550.308594 1870.28125 1502.042969 1877.621094 1453.773438 L 1879.21875 1441.339844 L 1907.140625 1444.585938 L 1905.101562 1455.777344 C 1896.46875 1504.300781 1887.839844 1552.824219 1879.210938 1601.34375 "/>
<path fill-rule="evenodd" fill="rgb(90.234375%, 24.31488%, 26.660156%)" fill-opacity="1" d="M 1855.601562 1598.578125 L 1879.210938 1601.34375 L 1907.691406 1630.394531 L 1882.351562 1625.679688 L 1855.601562 1598.578125 "/>
<path fill-rule="evenodd" fill="rgb(90.234375%, 24.31488%, 26.660156%)" fill-opacity="1" d="M 1837.398438 1605.144531 L 1937.628906 1619.65625 L 1948.339844 1628.667969 L 1850.359375 1614.714844 L 1837.398438 1605.144531 "/>
<path fill-rule="nonzero" fill="rgb(100%, 89.0625%, 45.872498%)" fill-opacity="1" d="M 1120.410156 591.101562 C 1120.140625 591.390625 1118.058594 707.519531 1111.988281 770.929688 L 1108.679688 770.410156 C 1115.769531 707.769531 1115.089844 591.398438 1117.070312 591.128906 L 1120.410156 591.101562 "/>
<path fill-rule="nonzero" fill="rgb(100%, 89.0625%, 45.872498%)" fill-opacity="1" d="M 1097.769531 627.871094 C 1115.070312 682.460938 1113.859375 717.039062 1112.378906 759.578125 C 1112.199219 764.851562 1112.011719 770.230469 1111.851562 775.800781 L 1108.511719 776.011719 C 1108.671875 770.339844 1108.859375 764.839844 1109.050781 759.46875 C 1110.519531 717.25 1111.710938 682.941406 1094.578125 628.878906 L 1097.769531 627.871094 "/>
<path fill-rule="nonzero" fill="rgb(100%, 89.0625%, 45.872498%)" fill-opacity="1" d="M 1151.980469 596.648438 C 1151.871094 597.050781 1112.53125 736.570312 1112.011719 770.699219 L 1108.671875 770.640625 C 1109.199219 736.070312 1148.648438 596.160156 1148.761719 595.761719 L 1151.980469 596.648438 "/>
<path fill-rule="evenodd" fill="rgb(79.296875%, 85.9375%, 35.276794%)" fill-opacity="1" d="M 1071.011719 520.300781 C 1091.878906 515.441406 1113.238281 530.550781 1118.710938 554.050781 C 1124.128906 577.339844 1104.160156 602.039062 1096.179688 628.378906 C 1077.378906 608.269531 1048.550781 594.941406 1043.128906 571.648438 C 1037.660156 548.148438 1050.140625 525.160156 1071.011719 520.300781 "/>
<path fill-rule="evenodd" fill="rgb(79.296875%, 85.9375%, 35.276794%)" fill-opacity="1" d="M 1091.359375 633.078125 L 1102.578125 630.46875 C 1104.449219 630.039062 1105.621094 628.148438 1105.179688 626.28125 C 1104.75 624.410156 1102.859375 623.230469 1100.988281 623.671875 L 1089.78125 626.28125 C 1087.910156 626.71875 1086.730469 628.601562 1087.171875 630.46875 C 1087.609375 632.339844 1089.488281 633.519531 1091.359375 633.078125 "/>
<path fill-rule="evenodd" fill="rgb(100%, 100%, 100%)" fill-opacity="1" d="M 1051.789062 563.039062 C 1049.890625 562.238281 1047.570312 558.890625 1048.578125 553.128906 C 1049.390625 548.921875 1051.949219 542.300781 1053.820312 540.148438 C 1055.941406 537.710938 1059.441406 535.628906 1057.691406 543.570312 C 1056.359375 549.648438 1056.101562 548.289062 1055.46875 555.191406 C 1054.941406 560.878906 1054.351562 563.828125 1051.789062 563.039062 "/>
<path fill-rule="evenodd" fill="rgb(100%, 100%, 100%)" fill-opacity="1" d="M 1057.820312 536.339844 C 1056.71875 535.261719 1057.289062 531.511719 1061.269531 529.238281 C 1063.308594 528.078125 1065.960938 527.308594 1062.109375 531.769531 C 1060.730469 533.371094 1059.789062 537.789062 1057.820312 536.339844 "/>
<path fill-rule="evenodd" fill="rgb(93.75%, 29.417419%, 29.026794%)" fill-opacity="1" d="M 1122.558594 478.511719 C 1145.019531 479.269531 1162.519531 500.378906 1161.660156 525.660156 C 1160.808594 550.710938 1133.871094 570.28125 1118.621094 594.769531 C 1105.058594 569.308594 1079.511719 547.949219 1080.359375 522.898438 C 1081.21875 497.621094 1100.109375 477.738281 1122.558594 478.511719 "/>
<path fill-rule="evenodd" fill="rgb(93.75%, 29.417419%, 29.026794%)" fill-opacity="1" d="M 1112.460938 598.230469 L 1124.53125 598.640625 C 1126.539062 598.710938 1128.238281 597.109375 1128.308594 595.101562 C 1128.378906 593.089844 1126.789062 591.390625 1124.769531 591.320312 L 1112.710938 590.910156 C 1110.699219 590.839844 1109 592.429688 1108.929688 594.441406 C 1108.859375 596.460938 1110.449219 598.160156 1112.460938 598.230469 "/>
<path fill-rule="evenodd" fill="rgb(100%, 100%, 100%)" fill-opacity="1" d="M 1091.46875 516.539062 C 1089.769531 515.210938 1088.320312 511.191406 1090.921875 505.628906 C 1092.890625 501.589844 1097.28125 495.589844 1099.761719 493.929688 C 1102.570312 492.03125 1106.671875 490.871094 1102.75 498.441406 C 1099.738281 504.230469 1099.851562 502.789062 1097.328125 509.601562 C 1095.25 515.21875 1093.851562 518.039062 1091.46875 516.539062 "/>
<path fill-rule="evenodd" fill="rgb(100%, 100%, 100%)" fill-opacity="1" d="M 1104.839844 491.160156 C 1104.03125 489.761719 1105.621094 486.121094 1110.269531 484.910156 C 1112.648438 484.289062 1115.539062 484.230469 1110.429688 487.699219 C 1108.589844 488.941406 1106.441406 493.160156 1104.839844 491.160156 "/>
<path fill-rule="evenodd" fill="rgb(5.880737%, 73.242188%, 76.951599%)" fill-opacity="1" d="M 1185.519531 510.46875 C 1168.429688 503.460938 1148.179688 513.378906 1140.289062 532.628906 C 1132.46875 551.699219 1146.058594 575.46875 1149.230469 598.988281 C 1168 584.46875 1194.371094 577.078125 1202.191406 558.011719 C 1210.078125 538.761719 1202.621094 517.480469 1185.519531 510.46875 "/>
<path fill-rule="evenodd" fill="rgb(5.880737%, 73.242188%, 76.951599%)" fill-opacity="1" d="M 1152.679688 603.660156 L 1143.5 599.890625 C 1141.96875 599.261719 1141.230469 597.5 1141.859375 595.960938 C 1142.480469 594.429688 1144.25 593.691406 1145.78125 594.320312 L 1154.96875 598.089844 C 1156.5 598.710938 1157.238281 600.480469 1156.609375 602.011719 C 1155.980469 603.539062 1154.210938 604.28125 1152.679688 603.660156 "/>
<path fill-rule="evenodd" fill="rgb(100%, 100%, 100%)" fill-opacity="1" d="M 1196 549.488281 C 1197.730469 549.070312 1200.171875 546.539062 1200.101562 541.5 C 1199.980469 537.800781 1198.710938 531.820312 1197.421875 529.730469 C 1195.949219 527.359375 1193.269531 525.109375 1193.660156 532.109375 C 1193.949219 537.46875 1194.359375 536.351562 1193.949219 542.300781 C 1193.621094 547.21875 1193.710938 549.808594 1196 549.488281 "/>
<path fill-rule="evenodd" fill="rgb(100%, 100%, 100%)" fill-opacity="1" d="M 1194.550781 525.941406 C 1195.628906 525.160156 1195.660156 521.898438 1192.589844 519.421875 C 1191.011719 518.148438 1188.859375 517.128906 1191.519531 521.460938 C 1192.480469 523.011719 1192.671875 526.898438 1194.550781 525.941406 "/>
<path fill-rule="evenodd" fill="rgb(100%, 36.863708%, 38.818359%)" fill-opacity="1" d="M 1106.28125 729.960938 C 1074.75 736.308594 1067.25 712.570312 1083.589844 700.421875 C 1055.171875 708.800781 1059.429688 742.589844 1096.699219 734.75 C 1097.941406 734.488281 1102.679688 731.878906 1106.28125 729.960938 "/>
<path fill-rule="evenodd" fill="rgb(85.9375%, 22.338867%, 24.31488%)" fill-opacity="1" d="M 1081.671875 707.101562 C 1094.710938 704.25 1108.71875 708.441406 1107.339844 727.03125 C 1107.28125 727.839844 1107.199219 728.679688 1107.121094 729.511719 C 1108.640625 728.699219 1109.859375 728.070312 1110.351562 727.910156 C 1111.308594 727.601562 1111.828125 723.238281 1112.101562 719.628906 C 1113.480469 701.039062 1099.46875 696.851562 1086.429688 699.699219 C 1085.449219 699.910156 1084.5 700.148438 1083.589844 700.421875 C 1080.421875 702.78125 1078.148438 705.570312 1076.78125 708.488281 C 1078.300781 707.949219 1079.941406 707.480469 1081.671875 707.101562 "/>
<path fill-rule="evenodd" fill="rgb(100%, 43.920898%, 48.631287%)" fill-opacity="1" d="M 1077.511719 702.230469 C 1073.921875 706.871094 1072.460938 712.46875 1072.660156 718.140625 C 1072.96875 726.679688 1075.859375 732 1080.308594 735.070312 C 1071.019531 733.828125 1064.121094 728.359375 1063.628906 714.910156 C 1063.429688 709.238281 1064.890625 703.640625 1068.480469 699 C 1073.121094 693.011719 1080.578125 689.351562 1088.628906 688.851562 C 1094.910156 688.46875 1100.488281 689.859375 1105.289062 692.519531 C 1102.878906 692.078125 1100.328125 691.921875 1097.660156 692.089844 C 1089.609375 692.578125 1082.148438 696.238281 1077.511719 702.230469 "/>
<path fill-rule="evenodd" fill="rgb(85.9375%, 22.338867%, 24.31488%)" fill-opacity="1" d="M 1105.289062 692.519531 C 1116.339844 698.640625 1123.269531 711.441406 1125.121094 724.589844 C 1122.878906 725.488281 1120.28125 726.539062 1117.429688 727.628906 C 1114.730469 711.839844 1104.710938 696.898438 1089.050781 693.898438 C 1091.761719 692.890625 1094.671875 692.269531 1097.660156 692.089844 C 1100.328125 691.921875 1102.878906 692.078125 1105.289062 692.519531 "/>
<path fill-rule="evenodd" fill="rgb(100%, 36.863708%, 38.818359%)" fill-opacity="1" d="M 1127.761719 735.230469 C 1152.921875 740.621094 1160.179688 710.769531 1147.589844 697.058594 C 1170.140625 705.179688 1164.980469 747.179688 1135.25 740.398438 C 1134.269531 740.171875 1130.570312 737.328125 1127.761719 735.230469 "/>
<path fill-rule="evenodd" fill="rgb(85.9375%, 22.338867%, 24.31488%)" fill-opacity="1" d="M 1148.800781 705.140625 C 1138.410156 702.640625 1126.878906 708.890625 1127.050781 731.710938 C 1127.058594 732.699219 1127.070312 733.730469 1127.101562 734.75 C 1125.910156 733.859375 1124.960938 733.191406 1124.570312 733.03125 C 1123.808594 732.710938 1123.609375 727.378906 1123.578125 722.949219 C 1123.410156 700.140625 1134.941406 693.878906 1145.328125 696.378906 C 1146.109375 696.570312 1146.859375 696.800781 1147.589844 697.058594 C 1150.03125 699.71875 1151.730469 702.980469 1152.691406 706.480469 C 1151.480469 705.921875 1150.191406 705.46875 1148.800781 705.140625 "/>
<path fill-rule="evenodd" fill="rgb(100%, 43.920898%, 48.631287%)" fill-opacity="1" d="M 1157.808594 695.859375 C 1162.039062 699.921875 1164.308594 705.238281 1164.941406 710.878906 C 1165.898438 719.371094 1163.820312 725.058594 1159.859375 728.75 C 1168.871094 726.160156 1174.898438 719.738281 1173.398438 706.359375 C 1172.769531 700.71875 1170.5 695.390625 1166.269531 691.339844 C 1160.800781 686.089844 1152.878906 683.570312 1144.851562 684.261719 C 1138.578125 684.800781 1133.269531 687 1128.910156 690.328125 C 1131.230469 689.539062 1133.71875 689.011719 1136.390625 688.78125 C 1144.421875 688.089844 1152.339844 690.609375 1157.808594 695.859375 "/>
<path fill-rule="evenodd" fill="rgb(85.9375%, 22.338867%, 24.31488%)" fill-opacity="1" d="M 1128.910156 690.328125 C 1118.871094 698.011719 1113.898438 711.699219 1114 724.960938 C 1116.351562 725.53125 1119.078125 726.191406 1122.050781 726.851562 C 1122.398438 710.839844 1130.121094 694.578125 1145.179688 689.320312 C 1142.339844 688.710938 1139.371094 688.53125 1136.390625 688.78125 C 1133.71875 689.011719 1131.230469 689.539062 1128.910156 690.328125 "/>
<path fill-rule="evenodd" fill="rgb(100%, 84.375%, 21.946716%)" fill-opacity="1" d="M 1096.121094 723.269531 L 1194.679688 733 L 1178.808594 843.929688 L 1102.410156 836.261719 L 1096.121094 723.269531 "/>
<path fill-rule="evenodd" fill="rgb(100%, 74.804688%, 0%)" fill-opacity="1" d="M 1049.648438 771.589844 L 1065.898438 855.398438 L 1102.410156 836.261719 L 1096.121094 723.269531 L 1049.648438 771.589844 "/>
<path fill-rule="evenodd" fill="rgb(94.139099%, 68.943787%, 15.281677%)" fill-opacity="1" d="M 1178.808594 843.929688 L 1147.089844 858.058594 L 1065.898438 855.398438 L 1102.410156 836.261719 L 1178.808594 843.929688 "/>
<path fill-rule="evenodd" fill="rgb(100%, 74.804688%, 0%)" fill-opacity="1" d="M 1196.488281 751.761719 L 1191.601562 754.519531 L 1097.339844 745.289062 L 1096.121094 741.761719 C 1096.121094 741.761719 1196.519531 751.589844 1196.488281 751.761719 "/>
<path fill-rule="evenodd" fill="rgb(94.139099%, 68.943787%, 15.281677%)" fill-opacity="1" d="M 1050.738281 788.628906 L 1053.289062 790.070312 L 1097.339844 745.289062 L 1096.121094 741.761719 L 1050.738281 788.628906 "/>
<path fill-rule="evenodd" fill="rgb(100%, 66.601562%, 0%)" fill-opacity="1" d="M 1196.488281 751.761719 L 1200.691406 722.390625 L 1096.371094 711.820312 L 1096.121094 741.761719 L 1196.488281 751.761719 "/>
<path fill-rule="evenodd" fill="rgb(100%, 59.959412%, 0%)" fill-opacity="1" d="M 1096.371094 711.820312 L 1045.550781 764.441406 L 1050.738281 788.628906 L 1096.121094 741.761719 L 1096.371094 711.820312 "/>
<path fill-rule="evenodd" fill="rgb(90.234375%, 24.31488%, 26.660156%)" fill-opacity="1" d="M 1088.210938 843.699219 C 1081.890625 809.019531 1077.96875 771.929688 1071.839844 737.21875 L 1060.25 749.21875 C 1067.839844 781.078125 1071.339844 816.808594 1078.609375 848.738281 L 1088.210938 843.699219 "/>
<path fill-rule="evenodd" fill="rgb(100%, 36.863708%, 38.818359%)" fill-opacity="1" d="M 1135.46875 839.578125 L 1153.808594 841.421875 C 1156.300781 803.671875 1158.78125 765.910156 1161.269531 728.160156 L 1162.128906 718.480469 L 1140.460938 716.289062 L 1140.140625 725.101562 C 1138.578125 763.261719 1137.03125 801.421875 1135.46875 839.578125 "/>
<path fill-rule="evenodd" fill="rgb(90.234375%, 24.31488%, 26.660156%)" fill-opacity="1" d="M 1153.808594 841.421875 L 1135.46875 839.578125 L 1109.078125 856.820312 L 1129.039062 857.46875 L 1153.808594 841.421875 "/>
<path fill-rule="evenodd" fill="rgb(90.234375%, 24.31488%, 26.660156%)" fill-opacity="1" d="M 1166.488281 849.421875 L 1088.210938 843.699219 L 1078.609375 848.738281 L 1155.078125 854.5 L 1166.488281 849.421875 "/>
</svg>
